<svg width="260" height="260" viewBox="0 0 260 260" fill="none" xmlns="http://www.w3.org/2000/svg">
<g filter="url(#filter0_d_418_3344)">
<rect x="15" y="15" width="230" height="230" rx="20" fill="#7391FA"/>
</g>
<path d="M110.912 150.608V158.048H113.04V150.608H110.912ZM105.968 151.168V152.32C105.968 154.304 104.528 155.936 100.816 156.672L101.52 158.384C106.016 157.408 108.288 155.104 108.288 151.168H105.968ZM101.664 151.168V152.864H106.864V151.168H101.664ZM107.712 152.448V154.064H111.184V152.448H107.712ZM107.616 155.328V156.928H111.104V155.328H107.616ZM103.248 158.592V160.256H110.912V161.104H103.28V164.512H105.408V162.672H113.04V158.592H103.248ZM103.28 163.616V165.28H113.344V163.616H103.28ZM126.063 150.608V165.424H128.079V150.608H126.063ZM121.183 155.664V157.392H123.631V155.664H121.183ZM123.071 150.848V164.752H125.055V150.848H123.071ZM117.983 153.024V154.544C117.983 157.072 117.231 159.728 115.055 161.088L116.319 162.656C118.671 161.184 119.583 157.872 119.583 154.544V153.024H117.983ZM118.463 153.024V154.544C118.463 157.808 119.327 160.912 121.679 162.304L122.927 160.752C120.783 159.504 120.047 157.008 120.047 154.544V153.024H118.463ZM115.615 152.096V153.808H122.223V152.096H115.615ZM130.734 151.68V153.392H137.07V151.68H130.734ZM132.558 155.136V158.848H134.67V155.136H132.558ZM136.238 151.68V152.608C136.238 153.632 136.238 154.912 135.918 156.736L137.982 156.96C138.334 155.12 138.334 153.648 138.334 152.608V151.68H136.238ZM139.774 150.608V161.696H141.918V150.608H139.774ZM141.07 155.12V156.864H143.678V155.12H141.07ZM132.03 163.472V165.168H142.382V163.472H132.03ZM132.03 160.704V164H134.158V160.704H132.03ZM130.062 159.712C132.606 159.712 136.046 159.648 139.102 159.072L138.974 157.568C135.998 157.984 132.43 158.032 129.87 158.032L130.062 159.712ZM155.004 150.592V165.456H157.132V150.592H155.004ZM145.596 160.272V162H146.908C149.612 162 151.788 161.92 154.188 161.488L153.98 159.776C151.628 160.176 149.532 160.272 146.908 160.272H145.596ZM145.58 151.856V153.552H150.396V155.904H145.596V160.912H147.756V157.584H152.572V151.856H145.58Z" fill="white"/>
<circle cx="130.5" cy="199.5" r="15.5" transform="rotate(-180 130.5 199.5)" fill="white"/>
<path d="M128 205L134 199L128 193" stroke="#7391FA" stroke-width="3" stroke-linecap="round" stroke-linejoin="round"/>
<path d="M108.429 94.8571H130.214M91 77.4286V112.286C91 114.597 91.9181 116.813 93.5524 118.448C95.1866 120.082 97.4031 121 99.7143 121H160.714C163.025 121 165.242 120.082 166.876 118.448C168.51 116.813 169.429 114.597 169.429 112.286V77.4286H91ZM91 77.4286V68.7143C91 66.4031 91.9181 64.1866 93.5524 62.5524C95.1866 60.9181 97.4031 60 99.7143 60H160.714C163.025 60 165.242 60.9181 166.876 62.5524C168.51 64.1866 169.429 66.4031 169.429 68.7143V77.4286H91ZM91 77.4286H169.429H91Z" stroke="white" stroke-width="8" stroke-linecap="round" stroke-linejoin="round"/>
<defs>
<filter id="filter0_d_418_3344" x="0" y="0" width="260" height="260" filterUnits="userSpaceOnUse" color-interpolation-filters="sRGB">
<feFlood flood-opacity="0" result="BackgroundImageFix"/>
<feColorMatrix in="SourceAlpha" type="matrix" values="0 0 0 0 0 0 0 0 0 0 0 0 0 0 0 0 0 0 127 0" result="hardAlpha"/>
<feOffset/>
<feGaussianBlur stdDeviation="7.5"/>
<feComposite in2="hardAlpha" operator="out"/>
<feColorMatrix type="matrix" values="0 0 0 0 0 0 0 0 0 0 0 0 0 0 0 0 0 0 0.1 0"/>
<feBlend mode="normal" in2="BackgroundImageFix" result="effect1_dropShadow_418_3344"/>
<feBlend mode="normal" in="SourceGraphic" in2="effect1_dropShadow_418_3344" result="shape"/>
</filter>
</defs>
</svg>
