<svg width="260" height="260" viewBox="0 0 260 260" fill="none" xmlns="http://www.w3.org/2000/svg">
<g filter="url(#filter0_d_8_1042)">
<rect x="15" y="15" width="230" height="230" rx="20" fill="#7391FA"/>
</g>
<path d="M89.456 164H91.824V159.2H96.032V157.232H91.824V154.128H96.752V152.16H89.456V164ZM103.366 164.224C104.902 164.224 106.166 163.632 107.142 162.496L105.894 161.008C105.27 161.696 104.47 162.176 103.462 162.176C101.574 162.176 100.374 160.64 100.374 158.048C100.374 155.52 101.718 153.984 103.494 153.984C104.406 153.984 105.078 154.384 105.686 154.976L106.934 153.456C106.166 152.656 104.966 151.952 103.462 151.952C100.454 151.952 97.9578 154.224 97.9578 158.128C97.9578 162.08 100.374 164.224 103.366 164.224ZM122.019 150.592V165.456H124.163V150.592H122.019ZM116.179 151.632C113.939 151.632 112.291 153.68 112.291 156.912C112.291 160.176 113.939 162.224 116.179 162.224C118.419 162.224 120.067 160.176 120.067 156.912C120.067 153.68 118.419 151.632 116.179 151.632ZM116.179 153.568C117.283 153.568 118.019 154.736 118.019 156.912C118.019 159.12 117.283 160.304 116.179 160.304C115.075 160.304 114.323 159.12 114.323 156.912C114.323 154.736 115.075 153.568 116.179 153.568ZM129.586 155.568V158.288H131.714V155.568H129.586ZM134.802 155.568V158.288H136.914V155.568H134.802ZM126.578 157.632V159.312H139.97V157.632H126.578ZM133.25 160.064C130.034 160.064 128.098 161.024 128.098 162.736C128.098 164.464 130.034 165.424 133.25 165.424C136.45 165.424 138.386 164.464 138.386 162.736C138.386 161.024 136.45 160.064 133.25 160.064ZM133.25 161.664C135.234 161.664 136.242 162 136.242 162.736C136.242 163.488 135.234 163.824 133.25 163.824C131.266 163.824 130.258 163.488 130.258 162.736C130.258 162 131.266 161.664 133.25 161.664ZM133.282 150.816C130.002 150.816 127.922 151.904 127.922 153.68C127.922 155.44 130.002 156.496 133.282 156.496C136.546 156.496 138.642 155.44 138.642 153.68C138.642 151.904 136.546 150.816 133.282 150.816ZM133.282 152.448C135.314 152.448 136.45 152.848 136.45 153.68C136.45 154.496 135.314 154.896 133.282 154.896C131.25 154.896 130.114 154.496 130.114 153.68C130.114 152.848 131.25 152.448 133.282 152.448ZM151.568 150.624V161.904H153.696V150.624H151.568ZM149.632 154.288V155.984H152.368V154.288H149.632ZM149.632 157.472V159.152H152.368V157.472H149.632ZM141.344 152.16V153.824H149.472V152.16H141.344ZM145.504 154.352C143.488 154.352 142.032 155.552 142.032 157.264C142.032 158.976 143.488 160.176 145.504 160.176C147.52 160.176 148.976 158.976 148.976 157.264C148.976 155.552 147.52 154.352 145.504 154.352ZM145.504 155.984C146.368 155.984 146.976 156.448 146.976 157.264C146.976 158.096 146.368 158.544 145.504 158.544C144.64 158.544 144.032 158.096 144.032 157.264C144.032 156.448 144.64 155.984 145.504 155.984ZM144.448 150.576V153.184H146.576V150.576H144.448ZM143.888 163.472V165.168H154.016V163.472H143.888ZM143.888 160.976V164.256H146.032V160.976H143.888ZM165.647 150.624V160.608H167.775V150.624H165.647ZM167.023 154.8V156.56H169.631V154.8H167.023ZM162.815 160.752C159.615 160.752 157.775 161.584 157.775 163.104C157.775 164.624 159.615 165.44 162.815 165.44C166.015 165.44 167.855 164.624 167.855 163.104C167.855 161.584 166.015 160.752 162.815 160.752ZM162.815 162.288C164.799 162.288 165.711 162.528 165.711 163.104C165.711 163.664 164.799 163.904 162.815 163.904C160.799 163.904 159.903 163.664 159.903 163.104C159.903 162.528 160.799 162.288 162.815 162.288ZM159.375 157.136V159.312H161.503V157.136H159.375ZM156.079 160.224C158.655 160.224 162.047 160.192 165.151 159.648L164.991 158.208C161.999 158.608 158.479 158.624 155.839 158.624L156.079 160.224ZM156.223 151.664V153.2H164.623V151.664H156.223ZM160.431 153.568C158.239 153.568 156.815 154.368 156.815 155.68C156.815 156.992 158.239 157.792 160.431 157.792C162.623 157.792 164.031 156.992 164.031 155.68C164.031 154.368 162.623 153.568 160.431 153.568ZM160.431 154.928C161.439 154.928 162.015 155.184 162.015 155.68C162.015 156.192 161.439 156.432 160.431 156.432C159.423 156.432 158.831 156.192 158.831 155.68C158.831 155.184 159.423 154.928 160.431 154.928ZM159.375 150.496V152.336H161.503V150.496H159.375Z" fill="white"/>
<g filter="url(#filter1_d_8_1042)">
<circle cx="130.5" cy="201.5" r="15.5" transform="rotate(-180 130.5 201.5)" fill="white"/>
<path d="M128 207L134 201L128 195" stroke="#7391FA" stroke-width="3" stroke-linecap="round" stroke-linejoin="round"/>
</g>
<g filter="url(#filter2_d_8_1042)">
<path d="M157.817 110.327C157.932 110.091 158 109.811 158 109.515C158 109.22 157.932 108.94 157.812 108.693L155.511 105.259C155.467 105.195 155.443 105.121 155.443 105.037C155.443 104.953 155.467 104.88 155.511 104.816L157.817 101.371C157.932 101.135 158 100.854 158 100.559C158 100.264 157.932 99.983 157.812 99.737C157.62 99.1956 157.202 98.7724 156.678 98.5707L152.724 97.0894C152.575 97.0353 152.464 96.9073 152.435 96.7498V92.6111C152.402 91.996 152.089 91.4645 151.623 91.1397C151.306 90.9182 150.927 90.7903 150.513 90.7903C150.494 90.7903 150.48 90.7903 150.461 90.7903H149.697L145.612 91.873C145.564 91.8926 145.507 91.9074 145.444 91.9074C145.382 91.9074 145.324 91.8926 145.271 91.873L142.633 88.6742C142.254 88.2559 141.715 88 141.12 88C140.524 88 139.986 88.2608 139.606 88.6742L136.963 91.873C136.915 91.8926 136.858 91.9074 136.795 91.9074C136.733 91.9074 136.675 91.8926 136.622 91.873H136.627L132.303 90.7411H131.822C131.812 90.7411 131.798 90.7411 131.784 90.7411C131.366 90.7411 130.981 90.869 130.659 91.0905C130.198 91.4153 129.886 91.9468 129.852 92.557V96.6957C129.823 96.8581 129.713 96.986 129.568 97.0402L125.624 98.5165C124.98 98.6297 124.446 99.0578 124.187 99.6385C124.067 99.8895 124 100.165 124 100.46C124 100.756 124.067 101.036 124.187 101.282L126.488 104.717C126.532 104.781 126.556 104.855 126.556 104.939C126.556 105.022 126.532 105.096 126.488 105.16L124.182 108.605C124.067 108.841 124 109.122 124 109.417C124 109.712 124.067 109.993 124.187 110.239C124.379 110.78 124.797 111.203 125.321 111.405L129.275 112.886C129.424 112.94 129.535 113.068 129.564 113.226V117.365C129.597 117.98 129.91 118.511 130.376 118.836C130.698 119.057 131.082 119.185 131.5 119.185H131.539H132.307L133.797 118.841V137L141.148 127.158L148.212 137V118.841L149.701 119.235H150.23H150.268C150.686 119.235 151.071 119.107 151.393 118.885C151.854 118.56 152.166 118.029 152.2 117.419V113.28C152.229 113.118 152.339 112.99 152.483 112.936L156.428 111.459C157.053 111.331 157.562 110.908 157.817 110.342V110.327Z" fill="white"/>
<path d="M127.957 86.4107C128.136 86.286 128.214 86.0592 128.149 85.8506C128.083 85.642 127.89 85.5 127.672 85.5H99.9995C99.7234 85.5 99.4995 85.7239 99.4995 86V91.5333C99.4995 91.8095 99.7234 92.0333 99.9995 92.0333H124.403C124.638 92.0333 124.841 91.8698 124.891 91.6403L125 91.1471C125.468 89.1957 126.493 87.4273 127.957 86.4107Z" fill="white" stroke="white" stroke-linejoin="round"/>
<path d="M118.918 97.041C119.035 96.8903 119.057 96.6858 118.973 96.5141C118.889 96.3423 118.715 96.2334 118.524 96.2334H99.5996C99.3235 96.2334 99.0996 96.4573 99.0996 96.7334V102.267C99.0996 102.543 99.3235 102.767 99.5996 102.767H118.192C118.368 102.767 118.531 102.674 118.621 102.522C118.711 102.371 118.715 102.183 118.631 102.028C118.262 101.349 118.044 100.535 118.044 99.6661C118.044 99.0205 118.166 98.4097 118.388 97.8415C118.452 97.7182 118.624 97.4169 118.918 97.041Z" fill="white" stroke="white" stroke-linejoin="round"/>
<path d="M99.5996 74.0996C99.3235 74.0996 99.0996 74.3235 99.0996 74.5996V80.1329C99.0996 80.4091 99.3235 80.6329 99.5996 80.6329H154.933C155.209 80.6329 155.433 80.4091 155.433 80.1329V74.5996C155.433 74.3235 155.209 74.0996 154.933 74.0996H99.5996Z" fill="white" stroke="white" stroke-linecap="round" stroke-linejoin="round"/>
</g>
<path d="M95.1111 65C93.6794 65 92.3518 65.5373 91.4094 66.4239C90.4753 67.3027 90 68.4406 90 69.5714V112.429C90 113.559 90.4753 114.697 91.4094 115.576C92.3518 116.463 93.6794 117 95.1111 117H124.5C124.5 117 124.446 119 125 121C125.554 123 127.5 125 127.5 125H95.1111C91.71 125 88.4027 123.731 85.9278 121.403C83.4446 119.067 82 115.844 82 112.429V69.5714C82 66.1557 83.4446 62.9332 85.9278 60.5971C88.4027 58.2688 91.71 57 95.1111 57H158.889C162.29 57 165.597 58.2688 168.072 60.5971C170.555 62.9332 172 66.1557 172 69.5714V112.429C172 115.844 170.555 119.067 168.072 121.403C165.597 123.731 162.29 125 158.889 125H154.5C154.5 125 156 123.5 157 121C158 118.5 157.5 117 157.5 117H158.889C160.321 117 161.648 116.463 162.591 115.576C163.525 114.697 164 113.559 164 112.429V69.5714C164 68.4406 163.525 67.3027 162.591 66.4239C161.648 65.5373 160.321 65 158.889 65H95.1111Z" fill="white" stroke="white" stroke-linecap="round" stroke-linejoin="round"/>
<defs>
<filter id="filter0_d_8_1042" x="0" y="0" width="260" height="260" filterUnits="userSpaceOnUse" color-interpolation-filters="sRGB">
<feFlood flood-opacity="0" result="BackgroundImageFix"/>
<feColorMatrix in="SourceAlpha" type="matrix" values="0 0 0 0 0 0 0 0 0 0 0 0 0 0 0 0 0 0 127 0" result="hardAlpha"/>
<feOffset/>
<feGaussianBlur stdDeviation="7.5"/>
<feComposite in2="hardAlpha" operator="out"/>
<feColorMatrix type="matrix" values="0 0 0 0 0 0 0 0 0 0 0 0 0 0 0 0 0 0 0.1 0"/>
<feBlend mode="normal" in2="BackgroundImageFix" result="effect1_dropShadow_8_1042"/>
<feBlend mode="normal" in="SourceGraphic" in2="effect1_dropShadow_8_1042" result="shape"/>
</filter>
<filter id="filter1_d_8_1042" x="108" y="182" width="45" height="45" filterUnits="userSpaceOnUse" color-interpolation-filters="sRGB">
<feFlood flood-opacity="0" result="BackgroundImageFix"/>
<feColorMatrix in="SourceAlpha" type="matrix" values="0 0 0 0 0 0 0 0 0 0 0 0 0 0 0 0 0 0 127 0" result="hardAlpha"/>
<feOffset dy="3"/>
<feGaussianBlur stdDeviation="3.5"/>
<feComposite in2="hardAlpha" operator="out"/>
<feColorMatrix type="matrix" values="0 0 0 0 0 0 0 0 0 0 0 0 0 0 0 0 0 0 0.15 0"/>
<feBlend mode="normal" in2="BackgroundImageFix" result="effect1_dropShadow_8_1042"/>
<feBlend mode="normal" in="SourceGraphic" in2="effect1_dropShadow_8_1042" result="shape"/>
</filter>
<filter id="filter2_d_8_1042" x="91.5996" y="69.5996" width="73.3999" height="77.4004" filterUnits="userSpaceOnUse" color-interpolation-filters="sRGB">
<feFlood flood-opacity="0" result="BackgroundImageFix"/>
<feColorMatrix in="SourceAlpha" type="matrix" values="0 0 0 0 0 0 0 0 0 0 0 0 0 0 0 0 0 0 127 0" result="hardAlpha"/>
<feOffset dy="3"/>
<feGaussianBlur stdDeviation="3.5"/>
<feComposite in2="hardAlpha" operator="out"/>
<feColorMatrix type="matrix" values="0 0 0 0 0 0 0 0 0 0 0 0 0 0 0 0 0 0 0.15 0"/>
<feBlend mode="normal" in2="BackgroundImageFix" result="effect1_dropShadow_8_1042"/>
<feBlend mode="normal" in="SourceGraphic" in2="effect1_dropShadow_8_1042" result="shape"/>
</filter>
</defs>
</svg>
