<svg width="260" height="260" viewBox="0 0 260 260" fill="none" xmlns="http://www.w3.org/2000/svg">
<g filter="url(#filter0_d_418_3383)">
<rect x="15" y="15" width="230" height="230" rx="30" fill="#7391FA"/>
</g>
<path d="M110.112 150.592V165.408H112.256V150.592H110.112ZM111.696 156.256V158H114.304V156.256H111.696ZM106.224 152.128V152.496C106.224 156.512 104.384 159.232 100.496 161.248L101.68 162.864C106.608 160.384 108.304 156.576 108.304 152.128H106.224ZM101.312 152.128V153.84H107.312V152.128H101.312ZM125.967 150.624V159.504H127.983V150.624H125.967ZM124.191 154.144V155.872H126.543V154.144H124.191ZM122.831 150.896V159.056H124.815V150.896H122.831ZM115.871 151.872V158.448H121.743V151.872H115.871ZM119.759 153.488V156.864H117.855V153.488H119.759ZM122.959 159.76C119.855 159.76 117.871 160.832 117.871 162.592C117.871 164.352 119.855 165.424 122.959 165.424C126.063 165.424 128.063 164.352 128.063 162.592C128.063 160.832 126.063 159.76 122.959 159.76ZM122.959 161.376C124.863 161.376 125.919 161.776 125.919 162.592C125.919 163.408 124.863 163.808 122.959 163.808C121.055 163.808 119.983 163.408 119.983 162.592C119.983 161.776 121.055 161.376 122.959 161.376ZM130.734 151.68V153.392H137.07V151.68H130.734ZM132.558 155.136V158.848H134.67V155.136H132.558ZM136.238 151.68V152.608C136.238 153.632 136.238 154.912 135.918 156.736L137.982 156.96C138.334 155.12 138.334 153.648 138.334 152.608V151.68H136.238ZM139.774 150.608V161.696H141.918V150.608H139.774ZM141.07 155.12V156.864H143.678V155.12H141.07ZM132.03 163.472V165.168H142.382V163.472H132.03ZM132.03 160.704V164H134.158V160.704H132.03ZM130.062 159.712C132.606 159.712 136.046 159.648 139.102 159.072L138.974 157.568C135.998 157.984 132.43 158.032 129.87 158.032L130.062 159.712ZM155.004 150.592V165.456H157.132V150.592H155.004ZM145.596 160.272V162H146.908C149.612 162 151.788 161.92 154.188 161.488L153.98 159.776C151.628 160.176 149.532 160.272 146.908 160.272H145.596ZM145.58 151.856V153.552H150.396V155.904H145.596V160.912H147.756V157.584H152.572V151.856H145.58Z" fill="#2C51D7"/>
<path d="M160.817 109.327C160.933 109.091 161 108.811 161 108.515C161 108.22 160.933 107.94 160.813 107.693L158.511 104.259C158.468 104.195 158.444 104.121 158.444 104.037C158.444 103.953 158.468 103.88 158.511 103.816L160.817 100.371C160.933 100.135 161 99.8541 161 99.5588C161 99.2635 160.933 98.983 160.813 98.737C160.62 98.1956 160.202 97.7724 159.679 97.5707L155.724 96.0894C155.575 96.0352 155.465 95.9073 155.436 95.7498V91.6111C155.402 90.996 155.09 90.4645 154.624 90.1397C154.307 89.9182 153.927 89.7903 153.514 89.7903C153.495 89.7903 153.48 89.7903 153.461 89.7903H152.697L148.613 90.873C148.565 90.8926 148.507 90.9074 148.445 90.9074C148.382 90.9074 148.324 90.8926 148.272 90.873L145.634 87.6742C145.254 87.2559 144.716 87 144.12 87C143.524 87 142.986 87.2608 142.607 87.6742L139.964 90.873C139.916 90.8926 139.858 90.9074 139.796 90.9074C139.733 90.9074 139.676 90.8926 139.623 90.873H139.627L135.303 89.7411H134.822C134.813 89.7411 134.798 89.7411 134.784 89.7411C134.366 89.7411 133.982 89.869 133.66 90.0905C133.198 90.4153 132.886 90.9468 132.852 91.557V95.6957C132.824 95.8581 132.713 95.986 132.569 96.0402L128.624 97.5165C127.98 97.6297 127.447 98.0578 127.187 98.6385C127.067 98.8895 127 99.1651 127 99.4604C127 99.7556 127.067 100.036 127.187 100.282L129.489 103.717C129.532 103.781 129.556 103.855 129.556 103.939C129.556 104.022 129.532 104.096 129.489 104.16L127.183 107.605C127.067 107.841 127 108.122 127 108.417C127 108.712 127.067 108.993 127.187 109.239C127.38 109.78 127.798 110.203 128.321 110.405L132.276 111.886C132.425 111.94 132.535 112.068 132.564 112.226V116.365C132.598 116.98 132.91 117.511 133.376 117.836C133.698 118.057 134.083 118.185 134.501 118.185H134.539H135.308L136.797 117.841V136L144.149 126.158L151.212 136V117.841L152.702 118.235H153.23H153.269C153.687 118.235 154.071 118.107 154.393 117.885C154.854 117.56 155.167 117.029 155.2 116.419V112.28C155.229 112.118 155.34 111.99 155.484 111.936L159.429 110.459C160.053 110.331 160.563 109.908 160.817 109.342V109.327Z" fill="#2C51D7"/>
<path d="M86 56.5C85.7239 56.5 85.5 56.7239 85.5 57V123.4C85.5 123.676 85.7239 123.9 86 123.9H130.267C130.502 123.9 130.705 123.736 130.755 123.506C130.805 123.276 130.688 123.042 130.473 122.945L129.906 122.687C128.491 121.693 127.557 120.116 127.447 118.311V117.867C127.447 117.59 127.223 117.367 126.947 117.367H92.0333V63.0333H168.5V117.367H161.087C160.811 117.367 160.587 117.59 160.587 117.867V118.294C160.476 120.123 159.53 121.713 158.123 122.694L157.67 122.975C157.48 123.092 157.391 123.322 157.452 123.537C157.513 123.752 157.71 123.9 157.933 123.9H174.533C174.809 123.9 175.033 123.676 175.033 123.4V57C175.033 56.7239 174.809 56.5 174.533 56.5H86Z" fill="#2C51D7" stroke="#2C51D7" stroke-miterlimit="3.52509" stroke-linecap="round" stroke-linejoin="round"/>
<path d="M130.957 85.4107C131.137 85.286 131.215 85.0592 131.149 84.8506C131.084 84.642 130.891 84.5 130.672 84.5H103C102.724 84.5 102.5 84.7239 102.5 85V90.5333C102.5 90.8095 102.724 91.0333 103 91.0333H127.404C127.638 91.0333 127.842 90.8698 127.892 90.6403L128 90.1471C128.468 88.1957 129.493 86.4273 130.957 85.4107Z" fill="#2C51D7" stroke="#2C51D7" stroke-linejoin="round"/>
<path d="M121.918 96.041C122.036 95.8903 122.057 95.6858 121.973 95.5141C121.889 95.3423 121.715 95.2334 121.524 95.2334H102.6C102.324 95.2334 102.1 95.4573 102.1 95.7334V101.267C102.1 101.543 102.324 101.767 102.6 101.767H121.192C121.368 101.767 121.532 101.674 121.622 101.522C121.712 101.371 121.715 101.183 121.631 101.028C121.262 100.349 121.044 99.5351 121.044 98.6661C121.044 98.0205 121.167 97.4097 121.388 96.8415C121.452 96.7182 121.625 96.4169 121.918 96.041Z" fill="#2C51D7" stroke="#2C51D7" stroke-linejoin="round"/>
<path d="M102.6 73.0996C102.324 73.0996 102.1 73.3235 102.1 73.5996V79.1329C102.1 79.4091 102.324 79.6329 102.6 79.6329H157.933C158.209 79.6329 158.433 79.4091 158.433 79.1329V73.5996C158.433 73.3235 158.209 73.0996 157.933 73.0996H102.6Z" fill="#2C51D7" stroke="#2C51D7" stroke-linecap="round" stroke-linejoin="round"/>
<circle cx="130.5" cy="204.5" r="15.5" transform="rotate(-180 130.5 204.5)" fill="#2C51D7"/>
<path d="M128 210L134 204L128 198" stroke="#7391FA" stroke-width="3" stroke-linecap="round" stroke-linejoin="round"/>
<defs>
<filter id="filter0_d_418_3383" x="0" y="0" width="260" height="260" filterUnits="userSpaceOnUse" color-interpolation-filters="sRGB">
<feFlood flood-opacity="0" result="BackgroundImageFix"/>
<feColorMatrix in="SourceAlpha" type="matrix" values="0 0 0 0 0 0 0 0 0 0 0 0 0 0 0 0 0 0 127 0" result="hardAlpha"/>
<feOffset/>
<feGaussianBlur stdDeviation="7.5"/>
<feComposite in2="hardAlpha" operator="out"/>
<feColorMatrix type="matrix" values="0 0 0 0 0 0 0 0 0 0 0 0 0 0 0 0 0 0 0.1 0"/>
<feBlend mode="normal" in2="BackgroundImageFix" result="effect1_dropShadow_418_3383"/>
<feBlend mode="normal" in="SourceGraphic" in2="effect1_dropShadow_418_3383" result="shape"/>
</filter>
</defs>
</svg>
