<svg width="260" height="260" viewBox="0 0 260 260" fill="none" xmlns="http://www.w3.org/2000/svg">
<g filter="url(#filter0_d_8_1078)">
<rect x="15" y="15" width="230" height="230" rx="20" fill="#7391FA"/>
</g>
<path d="M70.952 151.856V153.568H80.328V151.856H70.952ZM69.656 161.92V163.648H83.048V161.92H69.656ZM72.456 157.248V162.464H74.568V157.248H72.456ZM79.704 151.856V153.312C79.704 155.056 79.704 157.136 79.208 159.952L81.32 160.16C81.848 157.152 81.848 155.104 81.848 153.312V151.856H79.704ZM76.12 157.248V162.464H78.216V157.248H76.12ZM87.5108 158.352V161.264H89.6388V158.352H87.5108ZM92.4548 158.336V161.248H94.5668V158.336H92.4548ZM84.3588 157.52V159.2H97.7508V157.52H84.3588ZM85.8468 160.56V162.224H94.0068V165.424H96.1348V160.56H85.8468ZM91.0628 150.896C87.7988 150.896 85.7028 152.016 85.7028 153.808C85.7028 155.616 87.7988 156.736 91.0628 156.736C94.3108 156.736 96.4228 155.616 96.4228 153.808C96.4228 152.016 94.3108 150.896 91.0628 150.896ZM91.0628 152.544C93.0788 152.544 94.2308 152.96 94.2308 153.808C94.2308 154.672 93.0788 155.088 91.0628 155.088C89.0308 155.088 87.8948 154.672 87.8948 153.808C87.8948 152.96 89.0308 152.544 91.0628 152.544ZM109.286 150.608V165.424H111.43V150.608H109.286ZM104.918 152.144V152.528C104.918 156.496 103.382 159.184 99.1255 161.232L100.23 162.928C105.494 160.384 107.03 156.672 107.03 152.144H104.918ZM99.9095 152.144V153.824H105.926V152.144H99.9095ZM114.452 151.68V153.392H120.788V151.68H114.452ZM116.276 155.136V158.848H118.388V155.136H116.276ZM119.956 151.68V152.608C119.956 153.632 119.956 154.912 119.636 156.736L121.7 156.96C122.052 155.12 122.052 153.648 122.052 152.608V151.68H119.956ZM123.492 150.608V161.696H125.636V150.608H123.492ZM124.788 155.12V156.864H127.396V155.12H124.788ZM115.748 163.472V165.168H126.1V163.472H115.748ZM115.748 160.704V164H117.876V160.704H115.748ZM113.78 159.712C116.324 159.712 119.764 159.648 122.82 159.072L122.692 157.568C119.716 157.984 116.148 158.032 113.588 158.032L113.78 159.712ZM142.3 150.592V165.456H144.444V150.592H142.3ZM136.46 151.632C134.22 151.632 132.572 153.68 132.572 156.912C132.572 160.176 134.22 162.224 136.46 162.224C138.7 162.224 140.348 160.176 140.348 156.912C140.348 153.68 138.7 151.632 136.46 151.632ZM136.46 153.568C137.564 153.568 138.3 154.736 138.3 156.912C138.3 159.12 137.564 160.304 136.46 160.304C135.356 160.304 134.604 159.12 134.604 156.912C134.604 154.736 135.356 153.568 136.46 153.568ZM149.867 155.568V158.288H151.995V155.568H149.867ZM155.083 155.568V158.288H157.195V155.568H155.083ZM146.859 157.632V159.312H160.251V157.632H146.859ZM153.531 160.064C150.315 160.064 148.379 161.024 148.379 162.736C148.379 164.464 150.315 165.424 153.531 165.424C156.731 165.424 158.667 164.464 158.667 162.736C158.667 161.024 156.731 160.064 153.531 160.064ZM153.531 161.664C155.515 161.664 156.523 162 156.523 162.736C156.523 163.488 155.515 163.824 153.531 163.824C151.547 163.824 150.539 163.488 150.539 162.736C150.539 162 151.547 161.664 153.531 161.664ZM153.563 150.816C150.283 150.816 148.203 151.904 148.203 153.68C148.203 155.44 150.283 156.496 153.563 156.496C156.827 156.496 158.923 155.44 158.923 153.68C158.923 151.904 156.827 150.816 153.563 150.816ZM153.563 152.448C155.595 152.448 156.731 152.848 156.731 153.68C156.731 154.496 155.595 154.896 153.563 154.896C151.531 154.896 150.395 154.496 150.395 153.68C150.395 152.848 151.531 152.448 153.563 152.448ZM171.85 150.624V161.904H173.978V150.624H171.85ZM169.914 154.288V155.984H172.65V154.288H169.914ZM169.914 157.472V159.152H172.65V157.472H169.914ZM161.626 152.16V153.824H169.753V152.16H161.626ZM165.786 154.352C163.77 154.352 162.314 155.552 162.314 157.264C162.314 158.976 163.77 160.176 165.786 160.176C167.802 160.176 169.258 158.976 169.258 157.264C169.258 155.552 167.802 154.352 165.786 154.352ZM165.786 155.984C166.65 155.984 167.258 156.448 167.258 157.264C167.258 158.096 166.65 158.544 165.786 158.544C164.922 158.544 164.314 158.096 164.314 157.264C164.314 156.448 164.922 155.984 165.786 155.984ZM164.73 150.576V153.184H166.858V150.576H164.73ZM164.17 163.472V165.168H174.298V163.472H164.17ZM164.17 160.976V164.256H166.314V160.976H164.17ZM185.928 150.624V160.608H188.056V150.624H185.928ZM187.304 154.8V156.56H189.912V154.8H187.304ZM183.096 160.752C179.896 160.752 178.056 161.584 178.056 163.104C178.056 164.624 179.896 165.44 183.096 165.44C186.296 165.44 188.136 164.624 188.136 163.104C188.136 161.584 186.296 160.752 183.096 160.752ZM183.096 162.288C185.08 162.288 185.992 162.528 185.992 163.104C185.992 163.664 185.08 163.904 183.096 163.904C181.08 163.904 180.184 163.664 180.184 163.104C180.184 162.528 181.08 162.288 183.096 162.288ZM179.656 157.136V159.312H181.784V157.136H179.656ZM176.36 160.224C178.936 160.224 182.328 160.192 185.432 159.648L185.272 158.208C182.28 158.608 178.76 158.624 176.12 158.624L176.36 160.224ZM176.504 151.664V153.2H184.904V151.664H176.504ZM180.712 153.568C178.52 153.568 177.096 154.368 177.096 155.68C177.096 156.992 178.52 157.792 180.712 157.792C182.904 157.792 184.312 156.992 184.312 155.68C184.312 154.368 182.904 153.568 180.712 153.568ZM180.712 154.928C181.72 154.928 182.296 155.184 182.296 155.68C182.296 156.192 181.72 156.432 180.712 156.432C179.704 156.432 179.112 156.192 179.112 155.68C179.112 155.184 179.704 154.928 180.712 154.928ZM179.656 150.496V152.336H181.784V150.496H179.656Z" fill="#2C51D7"/>
<path d="M113.9 106.6C113.557 106.6 113.213 106.65 112.885 106.757C111.022 107.362 109.063 107.75 107 107.75C104.937 107.75 102.978 107.362 101.114 106.757C100.786 106.65 100.444 106.6 100.1 106.6C91.1791 106.6 83.9528 113.856 84.0002 122.789C84.0204 126.564 87.1239 129.6 90.9002 129.6H123.1C126.876 129.6 129.98 126.564 130 122.789C130.048 113.856 122.821 106.6 113.9 106.6ZM107 102C114.622 102 120.8 95.8215 120.8 88.1999C120.8 80.5783 114.622 74.4 107 74.4C99.3786 74.4 93.2002 80.5783 93.2002 88.1999C93.2002 95.8215 99.3786 102 107 102ZM169.1 56H113.9C110.095 56 107 59.1984 107 63.1285V69.8C110.367 69.8 113.483 70.7746 116.2 72.3587V65.2H166.8V106.6H157.6V97.3999H139.2V106.6H128.241C130.986 108.999 133.002 112.167 133.946 115.8H169.1C172.905 115.8 176 112.601 176 108.671V63.1285C176 59.1984 172.905 56 169.1 56V56Z" fill="#2C51D7"/>
<g filter="url(#filter1_d_8_1078)">
<circle cx="129.5" cy="201.5" r="15.5" transform="rotate(-180 129.5 201.5)" fill="#2C51D7"/>
<path d="M127 207L133 201L127 195" stroke="#7391FA" stroke-width="3" stroke-linecap="round" stroke-linejoin="round"/>
</g>
<defs>
<filter id="filter0_d_8_1078" x="0" y="0" width="260" height="260" filterUnits="userSpaceOnUse" color-interpolation-filters="sRGB">
<feFlood flood-opacity="0" result="BackgroundImageFix"/>
<feColorMatrix in="SourceAlpha" type="matrix" values="0 0 0 0 0 0 0 0 0 0 0 0 0 0 0 0 0 0 127 0" result="hardAlpha"/>
<feOffset/>
<feGaussianBlur stdDeviation="7.5"/>
<feComposite in2="hardAlpha" operator="out"/>
<feColorMatrix type="matrix" values="0 0 0 0 0 0 0 0 0 0 0 0 0 0 0 0 0 0 0.1 0"/>
<feBlend mode="normal" in2="BackgroundImageFix" result="effect1_dropShadow_8_1078"/>
<feBlend mode="normal" in="SourceGraphic" in2="effect1_dropShadow_8_1078" result="shape"/>
</filter>
<filter id="filter1_d_8_1078" x="107" y="182" width="45" height="45" filterUnits="userSpaceOnUse" color-interpolation-filters="sRGB">
<feFlood flood-opacity="0" result="BackgroundImageFix"/>
<feColorMatrix in="SourceAlpha" type="matrix" values="0 0 0 0 0 0 0 0 0 0 0 0 0 0 0 0 0 0 127 0" result="hardAlpha"/>
<feOffset dy="3"/>
<feGaussianBlur stdDeviation="3.5"/>
<feComposite in2="hardAlpha" operator="out"/>
<feColorMatrix type="matrix" values="0 0 0 0 0 0 0 0 0 0 0 0 0 0 0 0 0 0 0.15 0"/>
<feBlend mode="normal" in2="BackgroundImageFix" result="effect1_dropShadow_8_1078"/>
<feBlend mode="normal" in="SourceGraphic" in2="effect1_dropShadow_8_1078" result="shape"/>
</filter>
</defs>
</svg>
