<svg width="260" height="260" viewBox="0 0 260 260" fill="none" xmlns="http://www.w3.org/2000/svg">
<g filter="url(#filter0_d_418_3522)">
<rect x="15" y="15" width="230" height="230" rx="20" fill="#AFECED"/>
</g>
<path d="M122.224 151.04V151.728C122.224 153.472 120.544 155.408 117.136 155.856L117.968 157.568C121.856 156.992 124.096 154.576 124.096 151.728V151.04H122.224ZM122.624 151.04V151.728C122.624 154.576 124.864 156.992 128.752 157.568L129.568 155.856C126.176 155.408 124.48 153.456 124.48 151.728V151.04H122.624ZM122.24 160V165.424H124.352V160H122.24ZM116.656 158.656V160.384H130.048V158.656H116.656ZM138.847 153.872V155.584H142.559V153.872H138.847ZM135.455 151.216C133.215 151.216 131.535 152.704 131.535 154.752C131.535 156.816 133.215 158.288 135.455 158.288C137.679 158.288 139.359 156.816 139.359 154.752C139.359 152.704 137.679 151.216 135.455 151.216ZM135.455 152.992C136.543 152.992 137.327 153.648 137.327 154.752C137.327 155.856 136.543 156.528 135.455 156.528C134.367 156.528 133.567 155.856 133.567 154.752C133.567 153.648 134.367 152.992 135.455 152.992ZM141.631 150.608V158.576H143.759V150.608H141.631ZM133.919 159.216V165.264H143.759V159.216H141.647V160.624H136.031V159.216H133.919ZM136.031 162.256H141.647V163.568H136.031V162.256Z" fill="#4FCED0"/>
<circle cx="130.5" cy="198.5" r="15.5" transform="rotate(-180 130.5 198.5)" fill="#4FCED0"/>
<path d="M128 204L134 198L128 192" stroke="#AFECED" stroke-width="3" stroke-linecap="round" stroke-linejoin="round"/>
<path d="M129.667 57L83 80.3333L129.667 103.667L176.333 80.3333L129.667 57Z" stroke="#4FCED0" stroke-width="8" stroke-linecap="round" stroke-linejoin="round"/>
<path d="M162.333 87.3325V110.666L129.667 126.999L97 110.666V87.3325" stroke="#4FCED0" stroke-width="8" stroke-linecap="round" stroke-linejoin="round"/>
<path d="M176.333 101.333V120" stroke="#4FCED0" stroke-width="8" stroke-linecap="round" stroke-linejoin="round"/>
<defs>
<filter id="filter0_d_418_3522" x="0" y="0" width="260" height="260" filterUnits="userSpaceOnUse" color-interpolation-filters="sRGB">
<feFlood flood-opacity="0" result="BackgroundImageFix"/>
<feColorMatrix in="SourceAlpha" type="matrix" values="0 0 0 0 0 0 0 0 0 0 0 0 0 0 0 0 0 0 127 0" result="hardAlpha"/>
<feOffset/>
<feGaussianBlur stdDeviation="7.5"/>
<feComposite in2="hardAlpha" operator="out"/>
<feColorMatrix type="matrix" values="0 0 0 0 0 0 0 0 0 0 0 0 0 0 0 0 0 0 0.1 0"/>
<feBlend mode="normal" in2="BackgroundImageFix" result="effect1_dropShadow_418_3522"/>
<feBlend mode="normal" in="SourceGraphic" in2="effect1_dropShadow_418_3522" result="shape"/>
</filter>
</defs>
</svg>
