<svg width="80" height="80" viewBox="0 0 80 80" fill="none" xmlns="http://www.w3.org/2000/svg">
<circle cx="40" cy="40" r="40" fill="#2C51D7"/>
<path d="M53 32.5L40.5 20L28 32.5" stroke="white" stroke-width="3" stroke-linecap="round" stroke-linejoin="round"/>
<path d="M26.3888 55H29.0528V43.894H32.8148V41.68H22.6268V43.894H26.3888V55ZM39.6344 55.252C43.1624 55.252 45.5744 52.624 45.5744 48.286C45.5744 43.966 43.1624 41.446 39.6344 41.446C36.0884 41.446 33.6764 43.948 33.6764 48.286C33.6764 52.624 36.0884 55.252 39.6344 55.252ZM39.6344 52.948C37.6364 52.948 36.3944 51.13 36.3944 48.286C36.3944 45.442 37.6364 43.732 39.6344 43.732C41.6144 43.732 42.8744 45.442 42.8744 48.286C42.8744 51.13 41.6144 52.948 39.6344 52.948ZM48.194 55H50.858V50.266H52.64C55.502 50.266 57.77 48.916 57.77 45.874C57.77 42.706 55.502 41.68 52.568 41.68H48.194V55ZM50.858 48.16V43.804H52.37C54.206 43.804 55.178 44.308 55.178 45.874C55.178 47.386 54.296 48.16 52.46 48.16H50.858Z" fill="white"/>
</svg>
