<svg width="78" height="78" viewBox="0 0 78 78" fill="none" xmlns="http://www.w3.org/2000/svg">
<path d="M11.6999 7.7998C9.63121 7.7998 7.64725 8.62159 6.18447 10.0844C4.72169 11.5472 3.8999 13.5311 3.8999 15.5998V62.3998C3.8999 64.4685 4.72169 66.4524 6.18447 67.9152C7.64725 69.378 9.63121 70.1998 11.6999 70.1998H66.2999C68.3686 70.1998 70.3525 69.378 71.8153 67.9152C73.2781 66.4524 74.0999 64.4685 74.0999 62.3998V15.5998C74.0999 13.5311 73.2781 11.5472 71.8153 10.0844C70.3525 8.62159 68.3686 7.7998 66.2999 7.7998H11.6999ZM11.6999 66.2998C10.6656 66.2998 9.67358 65.8889 8.94219 65.1575C8.21079 64.4261 7.7999 63.4341 7.7999 62.3998V15.5998C7.7999 14.5655 8.21079 13.5735 8.94219 12.8421C9.67358 12.1107 10.6656 11.6998 11.6999 11.6998H66.2999C67.3342 11.6998 68.3262 12.1107 69.0576 12.8421C69.789 13.5735 70.1999 14.5655 70.1999 15.5998V62.3998C70.1999 63.4341 69.789 64.4261 69.0576 65.1575C68.3262 65.8889 67.3342 66.2998 66.2999 66.2998H11.6999Z" fill="#D1D3D4"/>
<path d="M66.3 15.6001H11.7V54.6001H66.3V15.6001ZM19.5 46.8001L29.25 35.1001L37.05 42.9001L46.8 31.2001L58.5 46.8001H19.5ZM15.6 58.5001H62.4V62.4001H15.6V58.5001Z" fill="#D1D3D4"/>
</svg>
