<svg width="55" height="55" viewBox="0 0 55 55" fill="none" xmlns="http://www.w3.org/2000/svg">
<path d="M38.72 0C48.455 0 55 6.27 55 15.5925V39.435C55 48.7547 48.455 55 38.72 55H16.2525C6.545 55 0 48.7547 0 39.435V15.5925C0 6.27 6.545 0 16.2525 0H38.72ZM29.8375 15.73C29.04 14.9325 27.72 14.9325 26.9225 15.73C26.125 16.555 26.125 17.8475 26.9225 18.6725L33.7425 25.4375H16.28C15.125 25.4375 14.2175 26.3725 14.2175 27.5C14.2175 28.655 15.125 29.5625 16.28 29.5625H33.7425L26.9225 36.355C26.5375 36.74 26.3175 37.29 26.3175 37.8125C26.3175 38.3322 26.5375 38.8575 26.9225 39.27C27.72 40.0675 29.04 40.0675 29.8375 39.27L40.205 28.9575C40.975 28.1875 40.975 26.8125 40.205 26.0425L29.8375 15.73Z" fill="#D1DBFF"/>
</svg>
