<svg width="18" height="22" viewBox="0 0 18 22" fill="none" xmlns="http://www.w3.org/2000/svg">
<path d="M14.3 11C16.1225 11 17.6 12.4775 17.6 14.3C17.6 16.7554 16.5903 18.7226 14.9333 20.0526C13.3025 21.3616 11.1168 22 8.8 22C6.48322 22 4.29752 21.3616 2.66673 20.0526C1.00973 18.7226 0 16.7554 0 14.3C0 12.5847 1.30873 11.175 2.98215 11.0151L3.29996 11H14.3ZM8.8 0C11.2301 0 13.2 1.96995 13.2 4.4C13.2 6.83005 11.2301 8.8 8.8 8.8C6.36995 8.8 4.4 6.83005 4.4 4.4C4.4 1.96995 6.36995 0 8.8 0Z" fill="#D1D3D4"/>
</svg>
