<svg width="20" height="20" viewBox="0 0 20 20" fill="none" xmlns="http://www.w3.org/2000/svg">
<path d="M17.5562 16.2774C18.5654 15.0628 19.2673 13.623 19.6025 12.0798C19.9376 10.5365 19.8962 8.9353 19.4817 7.41148C19.0671 5.88766 18.2917 4.48608 17.221 3.3253C16.1503 2.16451 14.8158 1.27866 13.3303 0.742669C11.8449 0.206682 10.2522 0.0363253 8.68699 0.246008C7.12178 0.455692 5.63009 1.03925 4.33809 1.94731C3.04609 2.85538 1.99179 4.06125 1.26435 5.46293C0.536922 6.8646 0.15776 8.42085 0.158938 10C0.159489 12.296 0.968602 14.5185 2.4443 16.2774L2.43024 16.2891C2.47944 16.3485 2.53568 16.3992 2.58643 16.4572C2.6497 16.53 2.71746 16.5978 2.78326 16.6686C2.98009 16.8819 3.18211 17.087 3.39483 17.2802C3.45915 17.3386 3.52586 17.3935 3.59165 17.4501C3.8166 17.6441 4.04744 17.8277 4.28757 17.9993C4.31857 18.0213 4.34606 18.048 4.37727 18.07V18.0611C6.02365 19.2197 7.98769 19.8415 10.0009 19.8415C12.014 19.8415 13.9781 19.2197 15.6245 18.0611V18.0699C15.6557 18.0479 15.6832 18.0211 15.7142 17.9992C15.954 17.8276 16.1851 17.6439 16.4101 17.45C16.4759 17.3937 16.5426 17.3385 16.6069 17.2801C16.8195 17.0868 17.0216 16.8816 17.2185 16.6685C17.2841 16.5978 17.3516 16.5299 17.4153 16.4571C17.4658 16.3991 17.5223 16.3483 17.5715 16.2889L17.5562 16.2774ZM10.0002 4.37645C10.6259 4.37645 11.2375 4.56197 11.7577 4.90956C12.2778 5.25714 12.6833 5.75118 12.9227 6.32919C13.1621 6.9072 13.2248 7.54323 13.1027 8.15685C12.9807 8.77046 12.6794 9.3341 12.237 9.77649C11.7946 10.2189 11.231 10.5202 10.6174 10.6422C10.0037 10.7643 9.36771 10.7016 8.7897 10.4622C8.21169 10.2228 7.71765 9.81734 7.37007 9.29714C7.02248 8.77695 6.83696 8.16536 6.83696 7.53972C6.83696 6.70077 7.17023 5.89618 7.76346 5.30295C8.35669 4.70972 9.16128 4.37645 10.0002 4.37645ZM4.38163 16.2774C4.39377 15.3544 4.76883 14.4733 5.42567 13.8247C6.08251 13.1761 6.9683 12.8123 7.89138 12.8118H12.1091C13.0322 12.8123 13.9179 13.1762 14.5748 13.8247C15.2316 14.4733 15.6067 15.3544 15.6188 16.2774C14.0772 17.6666 12.0755 18.4354 10.0002 18.4354C7.92497 18.4354 5.9233 17.6666 4.38163 16.2774Z" fill="#7391FA"/>
</svg>
