<svg width="118" height="91" viewBox="0 0 118 91" fill="none" xmlns="http://www.w3.org/2000/svg">
<path d="M70.3259 74.6999C67.6097 72.9444 65.3643 70.5745 63.7832 67.7884C62.1199 64.8572 61.2464 61.5618 61.2452 58.2108M70.3259 74.6999L61.4952 58.2103M70.3259 74.6999C64.5102 76.9547 59.5469 80.9119 56.1232 86.0339L56.1213 86.0369C55.7298 86.6408 55.5967 87.3715 55.7518 88.0711C55.9068 88.7705 56.3368 89.3807 56.947 89.7716M70.3259 74.6999H92.7255C98.5412 76.9547 103.505 80.9119 106.928 86.034L106.93 86.0369C107.322 86.6408 107.455 87.3715 107.3 88.0711C107.145 88.77 106.715 89.3798 106.106 89.7707C105.668 90.0609 105.15 90.2133 104.622 90.2082M61.2452 58.2108C61.2452 58.2107 61.2452 58.2105 61.2452 58.2104L61.4952 58.2103M61.2452 58.2108C61.2452 58.2109 61.2452 58.2111 61.2452 58.2112L61.4952 58.2103M61.2452 58.2108C61.2329 54.6326 62.2276 51.1223 64.1173 48.0613M61.4952 58.2103C61.4829 54.6589 62.4758 51.1748 64.3621 48.1409L64.1173 48.0613M64.1173 48.0613L54.2338 44.8479M64.1173 48.0613C64.1624 47.9883 64.208 47.9155 64.2542 47.8429L54.2338 44.8479M54.2338 44.8479V65.5368C54.2338 66.2528 53.9421 66.9382 53.425 67.4426C52.9081 67.9467 52.2083 68.2289 51.48 68.2289C50.7516 68.2289 50.0518 67.9467 49.5349 67.4426C49.0178 66.9382 48.7261 66.2528 48.7261 65.5368V41.1251C48.716 40.9888 48.7266 40.852 48.7574 40.7189V40.6574V40.6231L48.7667 40.5901L48.8606 40.2543L48.8658 40.2356L48.8738 40.218L48.999 39.9432L49.0078 39.9239V39.9085L49.0514 39.8447L49.2168 39.6028C49.2199 39.5951 49.2233 39.5878 49.2269 39.5809V39.5543L49.2908 39.4831L49.5099 39.2389L49.521 39.2265L49.5337 39.2156L49.759 39.0234V38.9877L49.8827 38.9153L50.1957 38.7321L50.2542 38.6979H50.2955L50.5566 38.5706L50.6085 38.5453H50.6662H50.6892L80.6659 28.789L80.6714 28.7872L80.6714 28.7872C81.2281 28.6202 81.8233 28.6202 82.38 28.7872L82.3854 28.7889L82.3854 28.7889L112.43 38.5572C112.43 38.5573 112.43 38.5573 112.431 38.5573C112.98 38.7337 113.46 39.0751 113.801 39.5342C114.142 39.9935 114.326 40.5468 114.326 41.1153C114.326 41.6838 114.142 42.2371 113.801 42.6964C113.46 43.1555 112.98 43.4969 112.431 43.6733C112.43 43.6733 112.43 43.6734 112.43 43.6734L98.934 48.0613C100.824 51.1222 101.818 54.6324 101.806 58.2104C101.806 58.2107 101.806 58.2109 101.806 58.2112L101.556 58.2103C101.555 61.5179 100.693 64.7711 99.0507 67.665C97.4599 70.4683 95.1874 72.8456 92.435 74.589L54.2338 44.8479ZM104.622 90.2082C104.167 90.209 103.718 90.0993 103.316 89.8888C102.914 89.6779 102.571 89.3724 102.319 88.9991L102.318 88.9978C100.069 85.6184 96.9888 82.8404 93.3574 80.9169C89.726 78.9934 85.6588 77.9857 81.5257 77.9857C77.3926 77.9857 73.3254 78.9934 69.6939 80.9169C66.0625 82.8404 62.9824 85.6184 60.7331 88.9978C60.5372 89.2935 60.2834 89.5479 59.9867 89.7467C59.6898 89.9455 59.3557 90.0847 59.0039 90.1565C58.652 90.2283 58.2891 90.2312 57.9361 90.1651C57.5833 90.0991 57.2471 89.9655 56.947 89.7716M104.622 90.2082C104.622 90.2082 104.621 90.2082 104.621 90.2082L104.623 89.9582M104.622 90.2082C104.623 90.2082 104.623 90.2082 104.624 90.2082L104.623 89.9582M56.947 89.7716C56.9468 89.7715 56.9467 89.7714 56.9465 89.7713L57.0822 89.5613M56.947 89.7716C56.9471 89.7717 56.9473 89.7718 56.9474 89.7719L57.0822 89.5613M57.0822 89.5613C57.3549 89.7376 57.6608 89.8593 57.9821 89.9194C58.3034 89.9795 58.6337 89.9769 58.9539 89.9115C59.2742 89.8462 59.5779 89.7196 59.8476 89.539C60.1173 89.3583 60.3475 89.1273 60.525 88.8592M57.0822 89.5613C56.5265 89.2054 56.1364 88.6508 55.9959 88.017C55.8554 87.3832 55.9758 86.7209 56.3311 86.1729L60.525 88.8592M60.525 88.8592C62.7976 85.4448 65.9092 82.6387 69.5769 80.696C73.2446 78.7533 77.3521 77.7357 81.5257 77.7357C85.6993 77.7357 89.8067 78.7533 93.4744 80.696C97.1422 82.6387 100.254 85.4448 102.526 88.8592C102.755 89.1978 103.066 89.4755 103.432 89.6673C103.798 89.8592 104.208 89.9591 104.623 89.9582M60.525 88.8592L104.623 89.9582M80.6658 53.4416L80.6669 53.442C81.2248 53.621 81.8266 53.621 82.3845 53.442L82.3856 53.4416L93.5437 49.8038C95.3298 52.2608 96.2927 55.1974 96.2986 58.2108C96.2984 62.0285 94.7436 65.691 91.9739 68.3925C89.2039 71.0943 85.4457 72.6132 81.5257 72.6132C77.6057 72.6132 73.8475 71.0943 71.0775 68.3925C68.3078 65.691 66.753 62.0285 66.7528 58.2108C66.7586 55.1974 67.7216 52.2608 69.5077 49.8038L80.6658 53.4416ZM102.846 41.1155L93.5981 44.1317H93.5669L93.5291 44.144L81.5257 48.0567L69.5223 44.144L69.4845 44.1317H69.4532L60.2052 41.1155L81.5257 34.1739L102.846 41.1155Z" fill="#D1D3D4" stroke="#D1D3D4" stroke-width="0.5"/>
<path d="M22.3793 31.3816C25.3469 31.3816 28.1931 30.2008 30.2915 28.0989C32.39 25.9971 33.5689 23.1463 33.5689 20.1739C33.5689 17.2014 32.39 14.3507 30.2915 12.2488C28.1931 10.147 25.3469 8.96617 22.3793 8.96617C19.4116 8.96617 16.5655 10.147 14.467 12.2488C12.3685 14.3507 11.1896 17.2014 11.1896 20.1739C11.1896 23.1463 12.3685 25.9971 14.467 28.0989C16.5655 30.2008 19.4116 31.3816 22.3793 31.3816ZM22.3793 40.3477C19.7343 40.3477 17.1152 39.8259 14.6715 38.8121C12.2279 37.7983 10.0075 36.3123 8.13719 34.439C6.26689 32.5656 4.78329 30.3417 3.7711 27.8941C2.7589 25.4465 2.23793 22.8231 2.23793 20.1739C2.23793 17.5246 2.7589 14.9013 3.7711 12.4537C4.78329 10.0061 6.26689 7.78211 8.13719 5.90879C10.0075 4.03547 12.2279 2.54948 14.6715 1.53565C17.1152 0.521813 19.7343 -3.94772e-08 22.3793 0C27.7211 7.97278e-08 32.8441 2.12546 36.6214 5.90879C40.3986 9.69213 42.5206 14.8234 42.5206 20.1739C42.5206 25.5243 40.3986 30.6556 36.6214 34.439C32.8441 38.2223 27.7211 40.3477 22.3793 40.3477ZM35.8068 85.1786V67.2462C35.8068 63.6793 34.3922 60.2584 31.874 57.7362C29.3558 55.214 25.9405 53.797 22.3793 53.797C18.8181 53.797 15.4027 55.214 12.8846 57.7362C10.3664 60.2584 8.95171 63.6793 8.95171 67.2462V85.1786H0V67.2462C0 61.3013 2.35781 55.5999 6.55474 51.3962C10.7517 47.1924 16.4439 44.8308 22.3793 44.8308C28.3146 44.8308 34.0069 47.1924 38.2038 51.3962C42.4007 55.5999 44.7585 61.3013 44.7585 67.2462V85.1786H35.8068Z" fill="#D1D3D4"/>
<ellipse cx="4.47585" cy="85.5229" rx="4.47585" ry="4.47704" fill="#D1D3D4"/>
<ellipse cx="40.2827" cy="85.5229" rx="4.47585" ry="4.47704" fill="#D1D3D4"/>
</svg>
