<svg width="55" height="55" viewBox="0 0 55 55" fill="none" xmlns="http://www.w3.org/2000/svg">
<path d="M16.28 55C6.545 55 5.48141e-07 48.73 1.36314e-06 39.4075L3.44752e-06 15.565C4.26228e-06 6.24524 6.54501 -4.23607e-06 16.28 -3.38501e-06L38.7475 -1.42084e-06C48.455 -5.72182e-07 55 6.24525 55 15.565L55 39.4075C55 48.73 48.455 55 38.7475 55L16.28 55ZM25.1625 39.27C25.96 40.0675 27.28 40.0675 28.0775 39.27C28.875 38.445 28.875 37.1525 28.0775 36.3275L21.2575 29.5625L38.72 29.5625C39.875 29.5625 40.7825 28.6275 40.7825 27.5C40.7825 26.345 39.875 25.4375 38.72 25.4375L21.2575 25.4375L28.0775 18.645C28.4625 18.26 28.6825 17.71 28.6825 17.1875C28.6825 16.6677 28.4625 16.1425 28.0775 15.73C27.28 14.9325 25.96 14.9325 25.1625 15.73L14.795 26.0425C14.025 26.8125 14.025 28.1875 14.795 28.9575L25.1625 39.27Z" fill="#7391FA"/>
</svg>
