<svg width="24" height="28" viewBox="0 0 24 28" fill="none" xmlns="http://www.w3.org/2000/svg">
<path d="M12 27.857C13.8921 27.857 15.427 26.3221 15.427 24.4284H8.57305C8.57305 26.3221 10.1079 27.857 12 27.857V27.857ZM23.5387 19.8368C22.5037 18.7247 20.5671 17.0516 20.5671 11.5713C20.5671 7.4088 17.6486 4.07667 13.7132 3.25917V2.14275C13.7132 1.19614 12.9461 0.428467 12 0.428467C11.0539 0.428467 10.2868 1.19614 10.2868 2.14275V3.25917C6.35145 4.07667 3.43288 7.4088 3.43288 11.5713C3.43288 17.0516 1.49628 18.7247 0.461286 19.8368C0.139858 20.1823 -0.00264152 20.5954 3.70385e-05 20.9998C0.00592988 21.8784 0.695392 22.7141 1.71967 22.7141H22.2803C23.3046 22.7141 23.9946 21.8784 24 20.9998C24.0026 20.5954 23.8601 20.1818 23.5387 19.8368Z" fill="#7391FA"/>
</svg>
