<svg width="28" height="33" viewBox="0 0 28 33" fill="none" xmlns="http://www.w3.org/2000/svg">
<path d="M12 32.8131C13.8921 32.8131 15.427 31.2783 15.427 29.3846H8.57305C8.57305 31.2783 10.1079 32.8131 12 32.8131ZM23.5387 24.793C22.5037 23.6808 20.5671 22.0078 20.5671 16.5275C20.5671 12.365 17.6486 9.03285 13.7132 8.21535V7.09892C13.7132 6.15232 12.9461 5.38464 12 5.38464C11.0539 5.38464 10.2868 6.15232 10.2868 7.09892V8.21535C6.35145 9.03285 3.43288 12.365 3.43288 16.5275C3.43288 22.0078 1.49628 23.6808 0.461286 24.793C0.139858 25.1385 -0.00264152 25.5515 3.70385e-05 25.956C0.00592988 26.8346 0.695392 27.6703 1.71967 27.6703H22.2803C23.3046 27.6703 23.9946 26.8346 24 25.956C24.0026 25.5515 23.8601 25.138 23.5387 24.793Z" fill="#D1D3D4"/>
<circle cx="20" cy="8" r="8" fill="#7391FA"/>
<path d="M16.91 12H18.31V9.04C18.31 8.18 18.19 7.25 18.12 6.46H18.17L18.92 8.04L21.06 12H22.57V4.6H21.16V7.55C21.16 8.39 21.28 9.38 21.36 10.15H21.31L20.56 8.55L18.41 4.6H16.91V12Z" fill="white"/>
</svg>
