<svg width="39" height="39" viewBox="0 0 39 39" fill="none" xmlns="http://www.w3.org/2000/svg">
<rect x="0.2" y="0.2" width="38.6" height="38.6" rx="4.8" fill="#F9F9FC"/>
<path d="M26.5 11H12.5C11.3954 11 10.5 11.8954 10.5 13V27C10.5 28.1046 11.3954 29 12.5 29H26.5C27.6046 29 28.5 28.1046 28.5 27V13C28.5 11.8954 27.6046 11 26.5 11Z" stroke="#A7A9AC" stroke-width="2" stroke-linecap="round" stroke-linejoin="round"/>
<path d="M16.5 23L18.5 25L22.5 21M23.5 9V13V9ZM15.5 9V13V9ZM10.5 17H28.5H10.5Z" stroke="#A7A9AC" stroke-width="2" stroke-linecap="round" stroke-linejoin="round"/>
<rect x="0.2" y="0.2" width="38.6" height="38.6" rx="4.8" stroke="#D1D3D4" stroke-width="0.4"/>
</svg>
