<svg width="22" height="22" viewBox="0 0 22 22" fill="none" xmlns="http://www.w3.org/2000/svg">
<path fill-rule="evenodd" clip-rule="evenodd" d="M22 11C22 17.0752 17.0752 22 11 22C4.92486 22 0 17.0752 0 11C0 4.92486 4.92486 0 11 0C17.0752 0 22 4.92486 22 11ZM12.375 6.875C12.375 7.63439 11.7594 8.25 11 8.25C10.2406 8.25 9.625 7.63439 9.625 6.875C9.625 6.11561 10.2406 5.5 11 5.5C11.7594 5.5 12.375 6.11561 12.375 6.875ZM11 9.625C10.2406 9.625 9.625 10.2406 9.625 11V15.125C9.625 15.8844 10.2406 16.5 11 16.5C11.7594 16.5 12.375 15.8844 12.375 15.125V11C12.375 10.2406 11.7594 9.625 11 9.625Z" fill="#D1D3D4"/>
</svg>
