<svg width="20" height="20" viewBox="0 0 20 20" fill="none" xmlns="http://www.w3.org/2000/svg">
<path fill-rule="evenodd" clip-rule="evenodd" d="M1.47186 11.4214L4.31458 8.57864C4.70707 8.18615 5.34343 8.18615 5.73593 8.57864C6.10039 8.94311 6.12643 9.51784 5.81403 9.91234L5.73593 10L2.89322 12.8427C1.71573 14.0202 1.71573 15.9293 2.89322 17.1068C4.02866 18.2422 5.84437 18.2828 7.02839 17.2284L7.15729 17.1068L10 14.2641C10.3925 13.8716 11.0289 13.8716 11.4214 14.2641C11.7858 14.6285 11.8119 15.2033 11.4995 15.5978L11.4214 15.6854L8.57864 18.5281C6.61616 20.4906 3.43435 20.4906 1.47186 18.5281C-0.438976 16.6173 -0.489262 13.5505 1.32101 11.5788L1.47186 11.4214ZM11.4214 1.47186C13.3838 -0.490621 16.5657 -0.490621 18.5281 1.47186C20.4906 3.43435 20.4906 6.61616 18.5281 8.57864L15.6854 11.4214C15.2929 11.8139 14.6566 11.8139 14.2641 11.4214C13.8716 11.0289 13.8716 10.3925 14.2641 10L17.1068 7.15729C18.2843 5.9798 18.2843 4.07071 17.1068 2.89322C15.9293 1.71573 14.0202 1.71573 12.8427 2.89322L10 5.73593C9.6075 6.12843 8.97114 6.12843 8.57864 5.73593C8.18615 5.34343 8.18615 4.70707 8.57864 4.31458L11.4214 1.47186ZM11.4214 7.15729C11.8139 6.76479 12.4502 6.76479 12.8427 7.15729C13.2352 7.54978 13.2352 8.18615 12.8427 8.57864L8.57864 12.8427C8.18615 13.2352 7.54978 13.2352 7.15729 12.8427C6.76479 12.4502 6.76479 11.8139 7.15729 11.4214L11.4214 7.15729Z" fill="#D1D3D4"/>
</svg>
