<svg width="16" height="16" viewBox="0 0 16 16" fill="none" xmlns="http://www.w3.org/2000/svg">
<path fill-rule="evenodd" clip-rule="evenodd" d="M2.34315 13.6569C1.60028 12.914 1.011 12.0321 0.608964 11.0615C0.206926 10.0909 7.82739e-09 9.05058 0 8C-7.82739e-09 6.94942 0.206926 5.90914 0.608964 4.93853C1.011 3.96793 1.60028 3.08601 2.34315 2.34315C3.08601 1.60028 3.96793 1.011 4.93853 0.608964C5.90914 0.206926 6.94942 -7.82739e-09 8 0C9.05058 7.82739e-09 10.0909 0.206926 11.0615 0.608964C12.0321 1.011 12.914 1.60028 13.6569 2.34315C15.1571 3.84344 16 5.87827 16 8C16 10.1217 15.1571 12.1566 13.6569 13.6569C12.1566 15.1571 10.1217 16 8 16C5.87827 16 3.84344 15.1571 2.34315 13.6569ZM6.03005 4.97008C5.88788 4.8376 5.69984 4.76548 5.50554 4.76891C5.31125 4.77234 5.12586 4.85105 4.98846 4.98846C4.85105 5.12586 4.77234 5.31125 4.76891 5.50554C4.76548 5.69984 4.8376 5.88788 4.97008 6.03005L6.94003 8L4.97008 9.96995C4.89639 10.0386 4.83729 10.1214 4.7963 10.2134C4.75531 10.3054 4.73327 10.4047 4.73149 10.5054C4.72972 10.6061 4.74824 10.7061 4.78596 10.7995C4.82368 10.8929 4.87982 10.9777 4.95104 11.049C5.02226 11.1202 5.10709 11.1763 5.20047 11.214C5.29386 11.2518 5.39389 11.2703 5.49459 11.2685C5.59529 11.2667 5.6946 11.2447 5.7866 11.2037C5.87859 11.1627 5.96139 11.1036 6.03005 11.0299L8 9.05997L9.96995 11.0299C10.0386 11.1036 10.1214 11.1627 10.2134 11.2037C10.3054 11.2447 10.4047 11.2667 10.5054 11.2685C10.6061 11.2703 10.7061 11.2518 10.7995 11.214C10.8929 11.1763 10.9777 11.1202 11.049 11.049C11.1202 10.9777 11.1763 10.8929 11.214 10.7995C11.2518 10.7061 11.2703 10.6061 11.2685 10.5054C11.2667 10.4047 11.2447 10.3054 11.2037 10.2134C11.1627 10.1214 11.1036 10.0386 11.0299 9.96995L9.05997 8L11.0299 6.03005C11.1036 5.96139 11.1627 5.87859 11.2037 5.7866C11.2447 5.6946 11.2667 5.59529 11.2685 5.49459C11.2703 5.39389 11.2518 5.29386 11.214 5.20047C11.1763 5.10709 11.1202 5.02226 11.049 4.95104C10.9777 4.87982 10.8929 4.82368 10.7995 4.78596C10.7061 4.74824 10.6061 4.72972 10.5054 4.73149C10.4047 4.73327 10.3054 4.75531 10.2134 4.7963C10.1214 4.83729 10.0386 4.89639 9.96995 4.97008L8 6.94003L6.03005 4.97008Z" fill="#D1D3D4"/>
</svg>
