<svg width="23" height="23" viewBox="0 0 23 23" fill="none" xmlns="http://www.w3.org/2000/svg">
<path fill-rule="evenodd" clip-rule="evenodd" d="M2.4304 1.89873C2.34647 1.89873 2.26598 1.93207 2.20663 1.99142C2.14728 2.05077 2.11394 2.13126 2.11394 2.21519V6.64557C2.11394 6.89736 2.01392 7.13883 1.83588 7.31687C1.65784 7.49491 1.41636 7.59494 1.16458 7.59494C0.912789 7.59494 0.671314 7.49491 0.493273 7.31687C0.315232 7.13883 0.21521 6.89736 0.21521 6.64557V2.21519C0.21521 0.992405 1.20762 0 2.4304 0H6.86078C7.11257 0 7.35404 0.100022 7.53208 0.278063C7.71012 0.456104 7.81015 0.697579 7.81015 0.949367C7.81015 1.20115 7.71012 1.44263 7.53208 1.62067C7.35404 1.79871 7.11257 1.89873 6.86078 1.89873H2.4304ZM15.4051 0.949367C15.4051 0.697579 15.5051 0.456104 15.6831 0.278063C15.8612 0.100022 16.1027 0 16.3545 0H20.7848C22.0076 0 23 0.992405 23 2.21519V6.64557C23 6.89736 22.9 7.13883 22.722 7.31687C22.5439 7.49491 22.3024 7.59494 22.0507 7.59494C21.7989 7.59494 21.5574 7.49491 21.3794 7.31687C21.2013 7.13883 21.1013 6.89736 21.1013 6.64557V2.21519C21.1013 2.13126 21.0679 2.05077 21.0086 1.99142C20.9493 1.93207 20.8688 1.89873 20.7848 1.89873H16.3545C16.1027 1.89873 15.8612 1.79871 15.6831 1.62067C15.5051 1.44263 15.4051 1.20115 15.4051 0.949367ZM1.16458 15.1899C1.41636 15.1899 1.65784 15.2899 1.83588 15.4679C2.01392 15.646 2.11394 15.8875 2.11394 16.1392V20.5696C2.11394 20.7443 2.25572 20.8861 2.4304 20.8861H6.86078C7.11257 20.8861 7.35404 20.9861 7.53208 21.1641C7.71012 21.3422 7.81015 21.5837 7.81015 21.8354C7.81015 22.0872 7.71012 22.3287 7.53208 22.5068C7.35404 22.6848 7.11257 22.7848 6.86078 22.7848H2.4304C1.8429 22.7848 1.27945 22.5514 0.864024 22.136C0.448596 21.7206 0.21521 21.1571 0.21521 20.5696V16.1392C0.21521 15.8875 0.315232 15.646 0.493273 15.4679C0.671314 15.2899 0.912789 15.1899 1.16458 15.1899ZM22.0507 15.1899C22.3024 15.1899 22.5439 15.2899 22.722 15.4679C22.9 15.646 23 15.8875 23 16.1392V20.5696C23 21.1571 22.7666 21.7206 22.3512 22.136C21.9358 22.5514 21.3723 22.7848 20.7848 22.7848H16.3545C16.1027 22.7848 15.8612 22.6848 15.6831 22.5068C15.5051 22.3287 15.4051 22.0872 15.4051 21.8354C15.4051 21.5837 15.5051 21.3422 15.6831 21.1641C15.8612 20.9861 16.1027 20.8861 16.3545 20.8861H20.7848C20.8688 20.8861 20.9493 20.8527 21.0086 20.7934C21.0679 20.734 21.1013 20.6536 21.1013 20.5696V16.1392C21.1013 15.8875 21.2013 15.646 21.3794 15.4679C21.5574 15.2899 21.7989 15.1899 22.0507 15.1899Z" fill="#D1D3D4"/>
</svg>
