<svg width="18" height="23" viewBox="0 0 18 23" fill="none" xmlns="http://www.w3.org/2000/svg">
<path d="M14.3 11.5C16.1225 11.5 17.6 12.9775 17.6 14.8C17.6 17.2554 16.5903 19.2226 14.9333 20.5526C13.3025 21.8616 11.1168 22.5 8.8 22.5C6.48322 22.5 4.29752 21.8616 2.66673 20.5526C1.00973 19.2226 0 17.2554 0 14.8C0 13.0847 1.30873 11.675 2.98215 11.5151L3.29996 11.5H14.3ZM8.8 0.5C11.2301 0.5 13.2 2.46995 13.2 4.9C13.2 7.33005 11.2301 9.3 8.8 9.3C6.36995 9.3 4.4 7.33005 4.4 4.9C4.4 2.46995 6.36995 0.5 8.8 0.5Z" fill="white"/>
</svg>
