<svg width="24" height="22" viewBox="0 0 24 22" fill="none" xmlns="http://www.w3.org/2000/svg">
<path d="M12 0C12 0 4.5768 6.408 0.4284 9.8784C0.1848 10.0992 0 10.4208 0 10.8C0 11.4636 0.5364 12 1.2 12H3.6V20.4C3.6 21.0636 4.1364 21.6 4.8 21.6H8.4C9.0636 21.6 9.6 21.0624 9.6 20.4V15.6H14.4V20.4C14.4 21.0624 14.9364 21.6 15.6 21.6H19.2C19.8636 21.6 20.4 21.0636 20.4 20.4V12H22.8C23.4636 12 24 11.4636 24 10.8C24 10.4208 23.8152 10.0992 23.5404 9.8784C19.4208 6.408 12 0 12 0Z" fill="#D1D3D4"/>
</svg>
