<svg width="18" height="22" viewBox="0 0 18 22" fill="none" xmlns="http://www.w3.org/2000/svg">
<path d="M1.22222 19.5556H15.8889C16.5639 19.5556 17.1111 20.1028 17.1111 20.7778C17.1111 21.3965 16.6513 21.9079 16.0547 21.9888L15.8889 22H1.22222C0.547208 22 0 21.4528 0 20.7778C0 20.159 0.459806 19.6476 1.05637 19.5667L1.22222 19.5556H15.8889H1.22222ZM8.38971 0.0111575L8.55556 0C9.17432 0 9.68569 0.459806 9.76662 1.05637L9.77778 1.22222V13.7508L13.4529 10.0779C13.8868 9.64394 14.5658 9.60449 15.0443 9.95951L15.1814 10.0779C15.6153 10.5118 15.6548 11.1908 15.2997 11.6693L15.1814 11.8063L9.4198 17.5679C8.98588 18.0019 8.30687 18.0413 7.8284 17.6863L7.69131 17.5679L1.9297 11.8063C1.4524 11.329 1.4524 10.5552 1.9297 10.0779C2.36362 9.64394 3.04263 9.60449 3.5211 9.95951L3.65819 10.0779L7.33333 13.7541V1.22222C7.33333 0.603459 7.79314 0.0920889 8.38971 0.0111575L8.55556 0L8.38971 0.0111575Z" fill="#D1D3D4"/>
</svg>
