<svg width="22" height="23" viewBox="0 0 22 23" fill="none" xmlns="http://www.w3.org/2000/svg">
<path d="M3.14282 3.64286C3.14282 1.9071 4.54993 0.5 6.28568 0.5C8.02143 0.5 9.42854 1.9071 9.42854 3.64286C9.42854 4.65605 8.94909 5.55727 8.20471 6.132C8.18231 6.14852 8.16006 6.16524 8.13797 6.18213C7.61855 6.56168 6.97827 6.78571 6.28568 6.78571C4.54993 6.78571 3.14282 5.37861 3.14282 3.64286Z" fill="white"/>
<path d="M13.7954 6.132C13.8178 6.14852 13.84 6.16524 13.8621 6.18214C14.3815 6.56169 15.0219 6.78571 15.7144 6.78571C17.4502 6.78571 18.8572 5.37861 18.8572 3.64286C18.8572 1.9071 17.4502 0.5 15.7144 0.5C13.9786 0.5 12.5715 1.9071 12.5715 3.64286C12.5715 4.65605 13.051 5.55727 13.7954 6.132Z" fill="white"/>
<path d="M8.27763 8.35707C8.82104 7.41767 9.83674 6.78564 11 6.78564C12.1633 6.78564 13.179 7.41767 13.7224 8.35707C13.9899 8.81934 14.1429 9.35605 14.1429 9.9285C14.1429 11.6643 12.7358 13.0714 11 13.0714C9.26428 13.0714 7.85718 11.6643 7.85718 9.9285C7.85718 9.35605 8.01022 8.81934 8.27763 8.35707Z" fill="white"/>
<path d="M2.35711 8.35718H6.55397C6.38024 8.84869 6.28571 9.3776 6.28571 9.92861C6.28571 11.136 6.73962 12.2374 7.48611 13.0715H7.0714C5.36618 13.0715 3.91474 14.1579 3.37145 15.6763C2.83723 15.4589 2.34297 15.175 1.90481 14.8233C0.721239 13.8733 0 12.4682 0 10.7143C0 9.41256 1.05531 8.35718 2.35711 8.35718Z" fill="white"/>
<path d="M14.9284 13.0715C16.6335 13.0715 18.0851 14.1579 18.6283 15.6763C19.1626 15.4589 19.6568 15.175 20.0951 14.8233C21.2785 13.8733 21.9998 12.4682 21.9998 10.7143C21.9998 9.4125 20.9444 8.35718 19.6427 8.35718H15.4458C15.6195 8.84869 15.7141 9.3776 15.7141 9.92861C15.7141 11.136 15.2601 12.2374 14.5137 13.0715H14.9284Z" fill="white"/>
<path d="M17.1084 16.1011C17.2226 16.3782 17.2858 16.6818 17.2858 17C17.2858 18.7538 16.5645 20.159 15.3811 21.1089C14.2162 22.0439 12.6549 22.5 11.0001 22.5C9.34523 22.5 7.78402 22.0439 6.61916 21.1089C5.43559 20.159 4.71436 18.7538 4.71436 17C4.71436 16.6818 4.77745 16.3782 4.8918 16.1011C5.24515 15.2452 6.08796 14.6428 7.07147 14.6428H14.9286C15.9122 14.6428 16.755 15.2452 17.1084 16.1011Z" fill="white"/>
</svg>
