<svg width="21" height="21" viewBox="0 0 21 21" fill="none" xmlns="http://www.w3.org/2000/svg">
<path d="M18.5617 17.1973C19.6385 15.9014 20.3873 14.3652 20.7449 12.7187C21.1025 11.0722 21.0583 9.36379 20.6161 7.73798C20.1738 6.11217 19.3465 4.61678 18.2041 3.37829C17.0617 2.13981 15.6379 1.19467 14.053 0.622804C12.4681 0.050942 10.7688 -0.130817 9.09886 0.0929009C7.42889 0.316619 5.83735 0.939233 4.45888 1.90808C3.0804 2.87693 1.95553 4.16351 1.17941 5.659C0.403286 7.1545 -0.00125429 8.81491 2.92139e-06 10.4998C0.000590317 12.9495 0.863859 15.3207 2.43833 17.1973L2.42333 17.2098C2.47583 17.2731 2.53583 17.3273 2.58998 17.3892C2.65748 17.4669 2.72978 17.5392 2.79998 17.6148C3.00998 17.8422 3.22553 18.0612 3.45248 18.2673C3.5211 18.3296 3.59228 18.3882 3.66248 18.4485C3.90248 18.6555 4.14878 18.8514 4.40498 19.0345C4.43805 19.0579 4.46738 19.0865 4.50068 19.11V19.1004C6.25726 20.3365 8.35276 21 10.5007 21C12.6486 21 14.7441 20.3365 16.5007 19.1004V19.1098C16.534 19.0863 16.5633 19.0578 16.5964 19.0344C16.8523 18.8513 17.0989 18.6553 17.3389 18.4484C17.4091 18.3884 17.4803 18.3294 17.5489 18.2671C17.7758 18.0609 17.9914 17.842 18.2014 17.6146C18.2714 17.5392 18.3434 17.4667 18.4114 17.389C18.4653 17.3271 18.5255 17.273 18.578 17.2096L18.5617 17.1973ZM10.5 4.49981C11.1675 4.49981 11.82 4.69775 12.3751 5.0686C12.9301 5.43945 13.3626 5.96655 13.6181 6.58325C13.8735 7.19995 13.9404 7.87855 13.8102 8.53324C13.6799 9.18792 13.3585 9.78929 12.8865 10.2613C12.4145 10.7333 11.8131 11.0547 11.1584 11.185C10.5037 11.3152 9.82515 11.2483 9.20845 10.9929C8.59175 10.7375 8.06464 10.3049 7.69379 9.74986C7.32294 9.19484 7.125 8.54232 7.125 7.87481C7.125 6.9797 7.48058 6.12126 8.11352 5.48832C8.74645 4.85539 9.6049 4.49981 10.5 4.49981ZM4.50533 17.1973C4.51828 16.2125 4.91845 15.2724 5.61926 14.5805C6.32006 13.8885 7.26514 13.5003 8.25 13.4998H12.75C13.7349 13.5003 14.6799 13.8885 15.3807 14.5805C16.0815 15.2725 16.4817 16.2125 16.4947 17.1973C14.8498 18.6795 12.7142 19.4998 10.5 19.4998C8.28584 19.4998 6.15019 18.6795 4.50533 17.1973Z" fill="#D1D3D4"/>
</svg>
