<svg width="20" height="20" viewBox="0 0 20 20" fill="none" xmlns="http://www.w3.org/2000/svg">
<path fill-rule="evenodd" clip-rule="evenodd" d="M3.63604 3.63604L9.289 9.289L11.4214 7.15729C11.8139 6.76479 12.4502 6.76479 12.8427 7.15729C13.2352 7.54978 13.2352 8.18615 12.8427 8.57864L10.71 10.71L16.364 16.364C16.7545 16.7545 16.7545 17.3877 16.364 17.7782C15.9734 18.1687 15.3403 18.1687 14.9497 17.7782L12.139 14.968L8.57864 18.5281C6.61616 20.4906 3.43435 20.4906 1.47186 18.5281C-0.438977 16.6173 -0.489262 13.5505 1.32101 11.5788L1.47186 11.4214L5.032 7.861L2.22183 5.05025C1.8313 4.65973 1.8313 4.02656 2.22183 3.63604C2.61235 3.24551 3.24551 3.24551 3.63604 3.63604ZM6.453 9.282L2.89322 12.8427C1.71573 14.0202 1.71573 15.9293 2.89322 17.1068C4.02866 18.2422 5.84437 18.2828 7.02839 17.2284L7.15729 17.1068L10.717 13.546L9.296 12.125L8.57864 12.8427C8.18615 13.2352 7.54978 13.2352 7.15729 12.8427C6.76479 12.4502 6.76479 11.8139 7.15729 11.4214L7.875 10.704L6.453 9.282ZM18.5281 1.47186C20.4906 3.43435 20.4906 6.61616 18.5281 8.57864L15.6854 11.4214C15.2929 11.8139 14.6566 11.8139 14.2641 11.4214C13.8716 11.0289 13.8716 10.3925 14.2641 10L17.1068 7.15729C18.2843 5.9798 18.2843 4.07071 17.1068 2.89322C15.9293 1.71573 14.0202 1.71573 12.8427 2.89322L10 5.73593C9.6075 6.12843 8.97114 6.12843 8.57864 5.73593C8.18615 5.34343 8.18615 4.70707 8.57864 4.31458L11.4214 1.47186C13.3838 -0.490621 16.5657 -0.490621 18.5281 1.47186ZM10.7071 7.87868L9.29289 9.29289L10.7071 10.7071L12.1213 9.29289L10.7071 7.87868Z" fill="#D1D3D4"/>
</svg>
