<svg width="22" height="22" viewBox="0 0 22 22" fill="none" xmlns="http://www.w3.org/2000/svg">
<circle cx="11" cy="11" r="11" fill="white"/>
<path fill-rule="evenodd" clip-rule="evenodd" d="M3.22183 18.7782C2.20038 17.7567 1.39013 16.5441 0.837325 15.2095C0.284523 13.8749 1.07627e-08 12.4445 0 11C-1.07627e-08 9.55546 0.284523 8.12506 0.837325 6.79048C1.39013 5.4559 2.20038 4.24327 3.22183 3.22183C4.24327 2.20038 5.4559 1.39013 6.79048 0.837325C8.12506 0.284523 9.55546 -1.07627e-08 11 0C12.4445 1.07627e-08 13.8749 0.284523 15.2095 0.837325C16.5441 1.39013 17.7567 2.20038 18.7782 3.22183C20.8411 5.28473 22 8.08262 22 11C22 13.9174 20.8411 16.7153 18.7782 18.7782C16.7153 20.8411 13.9174 22 11 22C8.08262 22 5.28473 20.8411 3.22183 18.7782V18.7782ZM8.29132 6.83386C8.09583 6.6517 7.83728 6.55254 7.57012 6.55725C7.30296 6.56196 7.04806 6.67019 6.85913 6.85913C6.67019 7.04806 6.56196 7.30296 6.55725 7.57012C6.55254 7.83728 6.6517 8.09583 6.83386 8.29132L9.54254 11L6.83386 13.7087C6.73254 13.8031 6.65128 13.9169 6.59491 14.0434C6.53855 14.1699 6.50825 14.3065 6.5058 14.4449C6.50336 14.5834 6.52883 14.7209 6.58069 14.8493C6.63256 14.9778 6.70976 15.0944 6.80768 15.1923C6.9056 15.2902 7.02225 15.3674 7.15065 15.4193C7.27906 15.4712 7.41659 15.4966 7.55506 15.4942C7.69352 15.4918 7.83007 15.4614 7.95657 15.4051C8.08306 15.3487 8.19691 15.2675 8.29132 15.1661L11 12.4575L13.7087 15.1661C13.8031 15.2675 13.9169 15.3487 14.0434 15.4051C14.1699 15.4614 14.3065 15.4918 14.4449 15.4942C14.5834 15.4966 14.7209 15.4712 14.8493 15.4193C14.9778 15.3674 15.0944 15.2902 15.1923 15.1923C15.2902 15.0944 15.3674 14.9778 15.4193 14.8493C15.4712 14.7209 15.4966 14.5834 15.4942 14.4449C15.4918 14.3065 15.4614 14.1699 15.4051 14.0434C15.3487 13.9169 15.2675 13.8031 15.1661 13.7087L12.4575 11L15.1661 8.29132C15.2675 8.19691 15.3487 8.08306 15.4051 7.95657C15.4614 7.83007 15.4918 7.69352 15.4942 7.55506C15.4966 7.41659 15.4712 7.27906 15.4193 7.15065C15.3674 7.02225 15.2902 6.9056 15.1923 6.80768C15.0944 6.70976 14.9778 6.63256 14.8493 6.58069C14.7209 6.52883 14.5834 6.50336 14.4449 6.5058C14.3065 6.50825 14.1699 6.53855 14.0434 6.59491C13.9169 6.65128 13.8031 6.73254 13.7087 6.83386L11 9.54254L8.29132 6.83386Z" fill="#D1D3D4"/>
</svg>
