<svg width="24" height="11" viewBox="0 0 24 11" fill="none" xmlns="http://www.w3.org/2000/svg">
<rect width="24" height="11" rx="5.5" fill="#4FCED0"/>
<path d="M4.65946 8.5H5.63946V6.428C5.63946 5.826 5.55546 5.175 5.50646 4.622H5.54146L6.06646 5.728L7.56446 8.5H8.62146V3.32H7.63446V5.385C7.63446 5.973 7.71846 6.666 7.77446 7.205H7.73946L7.21446 6.085L5.70946 3.32H4.65946V8.5ZM9.90263 8.5H13.1576V7.632H10.9386V6.253H12.7516V5.378H10.9386V4.181H13.0806V3.32H9.90263V8.5ZM14.6993 8.5H15.9663L16.5333 5.938C16.6103 5.539 16.6873 5.133 16.7573 4.741H16.7853C16.8483 5.133 16.9183 5.539 17.0093 5.938L17.5833 8.5H18.8783L19.8373 3.32H18.8573L18.4373 5.847C18.3673 6.393 18.2833 6.946 18.2133 7.506H18.1783C18.0593 6.946 17.9613 6.386 17.8493 5.847L17.2473 3.32H16.3583L15.7633 5.847C15.6513 6.393 15.5393 6.946 15.4343 7.506H15.4063C15.3223 6.946 15.2453 6.393 15.1613 5.847L14.7553 3.32H13.6983L14.6993 8.5Z" fill="white"/>
</svg>
