<svg width="22" height="22" viewBox="0 0 22 22" fill="none" xmlns="http://www.w3.org/2000/svg">
<path d="M11 22C4.92422 22 0 17.0758 0 11C0 4.92422 4.92422 0 11 0C17.0758 0 22 4.92422 22 11C22 17.0758 17.0758 22 11 22ZM9.96875 11C9.96875 11.3438 10.1406 11.666 10.4285 11.8207L14.5535 14.5707C15.0262 14.923 15.6664 14.7941 15.9457 14.3215C16.298 13.8488 16.1691 13.2086 15.6965 12.8906L12.0312 10.45V5.15625C12.0312 4.58477 11.5715 4.125 10.9613 4.125C10.4285 4.125 9.93008 4.58477 9.93008 5.15625L9.96875 11Z" fill="#7391FA"/>
</svg>
