<svg width="78" height="78" viewBox="0 0 78 78" fill="none" xmlns="http://www.w3.org/2000/svg">
<path d="M11.7004 7.7998C9.6317 7.7998 7.64774 8.62159 6.18496 10.0844C4.72217 11.5472 3.90039 13.5311 3.90039 15.5998V62.3998C3.90039 64.4685 4.72217 66.4524 6.18496 67.9152C7.64774 69.378 9.6317 70.1998 11.7004 70.1998H66.3004C68.3691 70.1998 70.353 69.378 71.8158 67.9152C73.2786 66.4524 74.1004 64.4685 74.1004 62.3998V15.5998C74.1004 13.5311 73.2786 11.5472 71.8158 10.0844C70.353 8.62159 68.3691 7.7998 66.3004 7.7998H11.7004ZM11.7004 66.2998C10.666 66.2998 9.67407 65.8889 8.94267 65.1575C8.21128 64.4261 7.80039 63.4341 7.80039 62.3998V15.5998C7.80039 14.5655 8.21128 13.5735 8.94267 12.8421C9.67407 12.1107 10.666 11.6998 11.7004 11.6998H66.3004C67.3347 11.6998 68.3267 12.1107 69.0581 12.8421C69.7895 13.5735 70.2004 14.5655 70.2004 15.5998V62.3998C70.2004 63.4341 69.7895 64.4261 69.0581 65.1575C68.3267 65.8889 67.3347 66.2998 66.3004 66.2998H11.7004Z" fill="#E7EDFF"/>
<path d="M66.3002 15.5996H11.7002V54.5996H66.3002V15.5996ZM19.5002 46.7996L29.2502 35.0996L37.0502 42.8996L46.8002 31.1996L58.5002 46.7996H19.5002ZM15.6002 58.4996H62.4002V62.3996H15.6002V58.4996Z" fill="#E7EDFF"/>
</svg>
