<svg width="24" height="22" viewBox="0 0 24 22" fill="none" xmlns="http://www.w3.org/2000/svg">
<path d="M20.4 18.0337V21.0449C20.4 21.3763 20.1314 21.6449 19.8 21.6449H4.2C3.86863 21.6449 3.6 21.3763 3.6 21.0449V18.015H1.8C0.805887 18.015 0 17.2091 0 16.215V10.215C0 8.55812 1.34315 7.21497 3 7.21497H3.6V0.614972C3.6 0.283826 3.86828 0.0152898 4.19942 0.014972L19.7994 2.8237e-07C20.131 -0.000317958 20.4 0.268404 20.4 0.6V7.21497H21C22.6569 7.21497 24 8.55812 24 10.215V16.2337C24 17.2278 23.1941 18.0337 22.2 18.0337H20.4ZM20.4 16.8337H22.2C22.5314 16.8337 22.8 16.5651 22.8 16.2337V10.215C22.8 9.22086 21.9941 8.41497 21 8.41497H20.4V12.63C20.4 12.9613 20.1314 13.23 19.8 13.23H4.2C3.86863 13.23 3.6 12.9613 3.6 12.63V8.41497H3C2.00589 8.41497 1.2 9.22086 1.2 10.215V16.215C1.2 16.5463 1.46863 16.815 1.8 16.815H3.6V15.015C3.6 14.6836 3.86863 14.415 4.2 14.415H19.8C20.1314 14.415 20.4 14.6836 20.4 15.015V16.8337ZM19.2 7.812V1.20058L4.8 1.2144V12.03H19.2V7.81794L19.2 7.81497L19.2 7.812ZM7.8 4.81497C7.46863 4.81497 7.2 4.54634 7.2 4.21497C7.2 3.8836 7.46863 3.61497 7.8 3.61497H16.2C16.5314 3.61497 16.8 3.8836 16.8 4.21497C16.8 4.54634 16.5314 4.81497 16.2 4.81497H7.8ZM7.8 7.21497C7.46863 7.21497 7.2 6.94634 7.2 6.61497C7.2 6.2836 7.46863 6.01497 7.8 6.01497H16.2C16.5314 6.01497 16.8 6.2836 16.8 6.61497C16.8 6.94634 16.5314 7.21497 16.2 7.21497H7.8ZM7.8 9.61497C7.46863 9.61497 7.2 9.34634 7.2 9.01497C7.2 8.6836 7.46863 8.41497 7.8 8.41497H13.8C14.1314 8.41497 14.4 8.6836 14.4 9.01497C14.4 9.34634 14.1314 9.61497 13.8 9.61497H7.8ZM4.8 15.615V20.4449H19.2V15.615H4.8Z" fill="#D1D3D4"/>
</svg>
