<svg width="30" height="29" viewBox="0 0 30 29" fill="none" xmlns="http://www.w3.org/2000/svg">
<path d="M26.4704 7.19227L27.0942 5.14736C27.1512 4.96082 27.2444 4.78735 27.3685 4.63684C27.4926 4.48633 27.6451 4.36174 27.8174 4.27017C27.9896 4.17861 28.1782 4.12186 28.3723 4.10318C28.5665 4.0845 28.7625 4.10424 28.949 4.16128C29.1355 4.21833 29.309 4.31155 29.4595 4.43564C29.61 4.55972 29.7346 4.71224 29.8262 4.88447C29.9177 5.05671 29.9745 5.2453 29.9932 5.43946C30.0119 5.63363 29.9921 5.82958 29.9351 6.01611L28.1976 11.6964C28.0824 12.0729 27.8225 12.3882 27.475 12.5731C27.1275 12.758 26.7207 12.7973 26.3442 12.6825L20.6639 10.945C20.4735 10.8914 20.2957 10.8003 20.1409 10.677C19.9862 10.5537 19.8576 10.4008 19.7628 10.2271C19.668 10.0535 19.6089 9.86266 19.5889 9.66584C19.5688 9.46903 19.5883 9.27019 19.6462 9.08101C19.7041 8.89183 19.7992 8.71612 19.9259 8.56421C20.0526 8.41229 20.2084 8.28722 20.3842 8.19636C20.5599 8.10549 20.752 8.05065 20.9493 8.03506C21.1465 8.01947 21.3448 8.04345 21.5327 8.10558L24.0157 8.86444C22.918 7.19954 21.3869 5.86564 19.5873 5.0064C17.7877 4.14716 15.7879 3.79513 13.803 3.98824C11.8182 4.18134 9.9237 4.91226 8.3235 6.10227C6.72329 7.29227 5.47805 8.89628 4.72187 10.7415L4.33576 11.6816C4.26554 11.8671 4.15885 12.0368 4.02198 12.1804C3.88512 12.324 3.72086 12.4388 3.5389 12.5179C3.35694 12.597 3.16098 12.6388 2.96259 12.6409C2.76419 12.643 2.56739 12.6054 2.38379 12.5302C2.2002 12.4549 2.03354 12.3437 1.89366 12.203C1.75378 12.0623 1.64351 11.895 1.56937 11.7109C1.49523 11.5269 1.45871 11.3299 1.46199 11.1315C1.46526 10.9331 1.50825 10.7374 1.58842 10.5559L1.97453 9.61588C2.93421 7.27436 4.51355 5.23847 6.54296 3.72679C8.57237 2.21511 10.9752 1.28474 13.4935 1.03559C16.0117 0.786438 18.5503 1.22791 20.8366 2.31259C23.1229 3.39728 25.0705 5.08422 26.4704 7.19227V7.19227ZM3.41948 22.9531L2.93387 24.9C2.89042 25.0931 2.80882 25.2756 2.69385 25.4367C2.57888 25.5977 2.43288 25.7342 2.26441 25.8381C2.09594 25.942 1.90841 26.0111 1.71284 26.0415C1.51727 26.0718 1.3176 26.0628 1.12557 26.0149C0.933545 25.967 0.753031 25.8812 0.594638 25.7625C0.436246 25.6438 0.303171 25.4947 0.203234 25.3239C0.103297 25.153 0.0385146 24.964 0.0126934 24.7677C-0.0131278 24.5715 0.000533369 24.3721 0.0528741 24.1813L1.48892 18.4193C1.53737 18.2231 1.62535 18.0388 1.74747 17.8778C1.86959 17.7168 2.02329 17.5825 2.19915 17.4829C2.37501 17.3834 2.56934 17.3208 2.77024 17.2989C2.97113 17.2771 3.17437 17.2965 3.36751 17.356L9.05228 18.7727C9.43452 18.868 9.76325 19.1113 9.96613 19.449C10.169 19.7866 10.2295 20.1911 10.1341 20.5733C10.0388 20.9556 9.79557 21.2843 9.45789 21.4872C9.12021 21.6901 8.71576 21.7505 8.33352 21.6552L5.68122 20.9943C6.81508 22.7301 8.41781 24.1089 10.3035 24.9707C12.1892 25.8326 14.2806 26.1422 16.3351 25.8636C18.3896 25.585 20.323 24.7297 21.9111 23.3968C23.4993 22.064 24.677 20.3082 25.3077 18.3331C25.4274 17.9578 25.6913 17.6454 26.0414 17.4646C26.2147 17.3751 26.404 17.3206 26.5984 17.3043C26.7928 17.2879 26.9885 17.31 27.1744 17.3693C27.3602 17.4286 27.5326 17.5239 27.6816 17.6498C27.8306 17.7757 27.9534 17.9297 28.0429 18.1031C28.1324 18.2764 28.1868 18.4657 28.2032 18.6601C28.2195 18.8545 28.1974 19.0502 28.1382 19.236C27.5199 21.1755 26.4842 22.9558 25.1039 24.4519C23.7235 25.948 22.0321 27.1233 20.1486 27.8954C17.2139 29.0976 13.9569 29.2632 10.9154 28.3646C7.87386 27.4661 5.22971 25.5572 3.41948 22.9531V22.9531Z" fill="#A7A9AC"/>
</svg>
