<svg width="199" height="198" viewBox="0 0 199 198" fill="none" xmlns="http://www.w3.org/2000/svg">
<g filter="url(#filter0_d_757_6978)">
<rect x="15" y="15" width="169" height="167.268" rx="20" fill="#4FCED0"/>
</g>
<path d="M131.356 111.776C131.474 111.537 131.543 111.253 131.543 110.953C131.543 110.654 131.474 110.37 131.351 110.121L128.996 106.641C128.952 106.577 128.927 106.502 128.927 106.417C128.927 106.332 128.952 106.258 128.996 106.193L131.356 102.703C131.474 102.464 131.543 102.18 131.543 101.881C131.543 101.582 131.474 101.298 131.351 101.048C131.155 100.5 130.727 100.071 130.191 99.8669L126.144 98.3665C125.991 98.3116 125.878 98.182 125.849 98.0225V93.8302C125.814 93.2071 125.495 92.6687 125.018 92.3397C124.693 92.1154 124.304 91.9858 123.882 91.9858C123.862 91.9858 123.847 91.9858 123.827 91.9858H123.046L118.866 93.0824C118.816 93.1024 118.757 93.1173 118.693 93.1173C118.63 93.1173 118.571 93.1024 118.516 93.0824L115.817 89.8422C115.428 89.4185 114.877 89.1593 114.268 89.1593C113.658 89.1593 113.107 89.4235 112.719 89.8422L110.014 93.0824C109.965 93.1024 109.906 93.1173 109.842 93.1173C109.778 93.1173 109.719 93.1024 109.665 93.0824H109.67L105.244 91.9359H104.752C104.742 91.9359 104.727 91.9359 104.713 91.9359C104.285 91.9359 103.891 92.0655 103.562 92.2898C103.09 92.6188 102.77 93.1572 102.736 93.7753V97.9677C102.706 98.1322 102.593 98.2618 102.446 98.3166L98.4083 99.8121C97.7493 99.9268 97.2034 100.36 96.9379 100.949C96.8149 101.203 96.7461 101.482 96.7461 101.781C96.7461 102.08 96.8149 102.364 96.9379 102.614L99.2934 106.093C99.3377 106.158 99.3623 106.233 99.3623 106.317C99.3623 106.402 99.3377 106.477 99.2934 106.542L96.933 110.031C96.8149 110.27 96.7461 110.555 96.7461 110.854C96.7461 111.153 96.8149 111.437 96.9379 111.686C97.1346 112.235 97.5624 112.663 98.0984 112.868L102.146 114.368C102.298 114.423 102.411 114.553 102.441 114.712V118.904C102.475 119.528 102.795 120.066 103.272 120.395C103.601 120.619 103.995 120.749 104.423 120.749H104.462H105.249L106.773 120.4V138.794L114.297 128.824L121.526 138.794V120.4L123.05 120.799H123.591H123.631C124.059 120.799 124.452 120.669 124.782 120.445C125.254 120.116 125.573 119.577 125.608 118.959V114.767C125.637 114.602 125.75 114.473 125.898 114.418L129.935 112.922C130.574 112.793 131.096 112.364 131.356 111.791V111.776Z" fill="white"/>
<path d="M97.3556 87.1334C97.3556 88.709 97.3304 90.026 97.3304 92.0016V92.7384H72.1826V87.1334H97.3556Z" fill="white"/>
<path d="M90.2578 98.006H71.7734V103.611H90.2578C90.2578 102.585 90.2578 102.232 90.2578 101.268C90.2578 100.54 90.2578 99.9512 90.2578 99.2927C90.2578 99.1023 90.2578 98.6341 90.2578 98.006Z" fill="white"/>
<path d="M71.7734 75.5854H128.404V81.1904H71.7734V75.5854Z" fill="white"/>
<path d="M66.7076 65.25C65.2423 65.25 63.8836 65.7943 62.9191 66.6924C61.9631 67.5825 61.4766 68.7351 61.4766 69.8807V113.293C61.4766 114.439 61.9631 115.591 62.9191 116.481C63.8836 117.38 65.2423 117.924 66.7076 117.924H96.8594V121.683V126.028H66.7076C63.2267 126.028 59.8419 124.742 57.3089 122.384C54.7675 120.017 53.2891 116.753 53.2891 113.293V69.8807C53.2891 66.4207 54.7675 63.1564 57.3089 60.7901C59.8419 58.4316 63.2267 57.1463 66.7076 57.1463H131.981C135.462 57.1463 138.846 58.4316 141.379 60.7901C143.921 63.1564 145.399 66.4207 145.399 69.8807V113.293C145.399 116.753 143.921 120.017 141.379 122.384C138.846 124.742 135.462 126.028 131.981 126.028H129.867V121.683V117.924H131.981C133.446 117.924 134.805 117.38 135.769 116.481C136.725 115.591 137.212 114.439 137.212 113.293V69.8807C137.212 68.7351 136.725 67.5826 135.769 66.6924C134.805 65.7943 133.446 65.25 131.981 65.25H66.7076Z" fill="white"/>
<defs>
<filter id="filter0_d_757_6978" x="0" y="0" width="199" height="197.268" filterUnits="userSpaceOnUse" color-interpolation-filters="sRGB">
<feFlood flood-opacity="0" result="BackgroundImageFix"/>
<feColorMatrix in="SourceAlpha" type="matrix" values="0 0 0 0 0 0 0 0 0 0 0 0 0 0 0 0 0 0 127 0" result="hardAlpha"/>
<feOffset/>
<feGaussianBlur stdDeviation="7.5"/>
<feComposite in2="hardAlpha" operator="out"/>
<feColorMatrix type="matrix" values="0 0 0 0 0 0 0 0 0 0 0 0 0 0 0 0 0 0 0.1 0"/>
<feBlend mode="normal" in2="BackgroundImageFix" result="effect1_dropShadow_757_6978"/>
<feBlend mode="normal" in="SourceGraphic" in2="effect1_dropShadow_757_6978" result="shape"/>
</filter>
</defs>
</svg>
