<svg width="26" height="24" viewBox="0 0 26 24" fill="none" xmlns="http://www.w3.org/2000/svg">
<path fill-rule="evenodd" clip-rule="evenodd" d="M3.37913 7.53955H3.27253C2.56575 7.53955 1.88791 7.82882 1.38814 8.34373C0.888373 8.85864 0.607605 9.557 0.607605 10.2852V13.0308C0.607605 13.759 0.888373 14.4574 1.38814 14.9723C1.88791 15.4872 2.56575 15.7765 3.27253 15.7765H3.37913C3.76362 15.7763 4.14359 15.8619 4.49297 16.0273C4.84234 16.1927 5.15283 16.434 5.40314 16.7347L10.256 22.5692C11.0608 23.5357 12.5998 22.9495 12.5998 21.6755V1.64052C12.5998 0.366543 11.0608 -0.219653 10.2546 0.748188L5.40447 6.57994C5.15414 6.88107 4.84349 7.12277 4.49387 7.28842C4.14424 7.45407 3.76395 7.53974 3.37913 7.53955ZM21.442 1.05296C21.3159 0.92491 21.1663 0.824043 21.0019 0.756249C20.8375 0.688455 20.6617 0.655094 20.4846 0.658115C20.3076 0.661136 20.1329 0.700478 19.9708 0.773842C19.8087 0.847206 19.6624 0.953122 19.5405 1.0854C19.4186 1.21768 19.3235 1.37366 19.2607 1.54425C19.198 1.71483 19.1688 1.89658 19.1751 2.07889C19.1813 2.2612 19.2227 2.44041 19.2969 2.60604C19.3711 2.77167 19.4766 2.9204 19.6072 3.04355C24.4773 7.80999 24.4773 15.506 19.6072 20.2725C19.4766 20.3956 19.3711 20.5444 19.2969 20.71C19.2227 20.8756 19.1813 21.0548 19.1751 21.2372C19.1688 21.4195 19.198 21.6012 19.2607 21.7718C19.3235 21.9424 19.4186 22.0984 19.5405 22.2306C19.6624 22.3629 19.8087 22.4688 19.9708 22.5422C20.1329 22.6156 20.3076 22.6549 20.4846 22.6579C20.6617 22.6609 20.8375 22.6276 21.0019 22.5598C21.1663 22.492 21.3159 22.3911 21.442 22.2631C27.4181 16.4149 27.4181 6.90119 21.442 1.05296ZM17.5152 4.89686C17.259 4.646 16.9166 4.51027 16.5632 4.51954C16.2099 4.52881 15.8746 4.68231 15.6311 4.94628C15.3876 5.21025 15.2559 5.56307 15.2649 5.92711C15.2739 6.29115 15.4229 6.63659 15.6791 6.88746C18.38 9.53014 18.38 13.7859 15.6791 16.4286C15.5522 16.5528 15.4504 16.7015 15.3793 16.8663C15.3082 17.0311 15.2693 17.2087 15.2649 17.3889C15.2604 17.5692 15.2905 17.7486 15.3533 17.9169C15.4162 18.0852 15.5106 18.2391 15.6311 18.3698C15.8746 18.6337 16.2099 18.7872 16.5632 18.7965C16.7382 18.8011 16.9123 18.7701 17.0757 18.7054C17.239 18.6406 17.3884 18.5434 17.5152 18.4192C21.3221 14.6933 21.3221 8.62271 17.5152 4.89686Z" fill="#D1D3D4"/>
</svg>
