<svg width="30" height="28" viewBox="0 0 30 28" fill="none" xmlns="http://www.w3.org/2000/svg">
<path d="M26.4704 6.22438L27.0942 4.17946C27.1512 3.99293 27.2444 3.81945 27.3685 3.66894C27.4926 3.51844 27.6451 3.39384 27.8174 3.30228C27.9896 3.21071 28.1782 3.15397 28.3723 3.13528C28.5665 3.1166 28.7625 3.13634 28.949 3.19339C29.1355 3.25043 29.309 3.34366 29.4595 3.46774C29.61 3.59183 29.7346 3.74434 29.8262 3.91658C29.9177 4.08882 29.9745 4.2774 29.9932 4.47157C30.0119 4.66573 29.9921 4.86168 29.9351 5.04822L28.1976 10.7285C28.0824 11.105 27.8225 11.4203 27.475 11.6052C27.1275 11.7901 26.7207 11.8295 26.3442 11.7146L20.6639 9.9771C20.4735 9.9235 20.2957 9.83238 20.1409 9.70911C19.9862 9.58583 19.8576 9.43289 19.7628 9.25924C19.668 9.0856 19.6089 8.89477 19.5889 8.69795C19.5688 8.50113 19.5883 8.30229 19.6462 8.11311C19.7041 7.92393 19.7992 7.74823 19.9259 7.59631C20.0526 7.44439 20.2084 7.31933 20.3842 7.22846C20.5599 7.13759 20.752 7.08276 20.9493 7.06717C21.1465 7.05158 21.3448 7.07555 21.5326 7.13768L24.0157 7.89654C22.918 6.23165 21.3869 4.89775 19.5873 4.03851C17.7877 3.17926 15.7879 2.82724 13.803 3.02034C11.8182 3.21345 9.9237 3.94436 8.32349 5.13437C6.72329 6.32438 5.47805 7.92839 4.72187 9.77365L4.33576 10.7137C4.26554 10.8992 4.15885 11.0689 4.02198 11.2125C3.88512 11.3561 3.72085 11.4709 3.5389 11.55C3.35694 11.6291 3.16098 11.6709 2.96259 11.673C2.76419 11.6752 2.56739 11.6375 2.38379 11.5623C2.2002 11.487 2.03354 11.3758 1.89366 11.2351C1.75378 11.0944 1.64351 10.9271 1.56937 10.743C1.49523 10.559 1.45871 10.362 1.46199 10.1636C1.46526 9.96522 1.50825 9.7695 1.58842 9.58802L1.97453 8.64798C2.93421 6.30647 4.51355 4.27057 6.54296 2.75889C8.57237 1.24721 10.9752 0.316849 13.4935 0.0676957C16.0117 -0.181458 18.5503 0.26001 20.8366 1.3447C23.1229 2.42938 25.0705 4.11632 26.4704 6.22438ZM3.41948 21.9852L2.93387 23.9321C2.89042 24.1252 2.80882 24.3077 2.69385 24.4688C2.57888 24.6299 2.43288 24.7663 2.26441 24.8702C2.09594 24.9741 1.90841 25.0432 1.71284 25.0736C1.51727 25.1039 1.3176 25.0949 1.12557 25.047C0.933545 24.9991 0.753031 24.9133 0.594638 24.7946C0.436246 24.6759 0.303171 24.5268 0.203234 24.356C0.103297 24.1852 0.0385146 23.9961 0.0126934 23.7999C-0.0131278 23.6036 0.000533369 23.4042 0.0528741 23.2134L1.48892 17.4514C1.53737 17.2552 1.62535 17.0709 1.74747 16.9099C1.86959 16.7489 2.02329 16.6146 2.19915 16.515C2.37501 16.4155 2.56934 16.3529 2.77024 16.331C2.97113 16.3092 3.17437 16.3286 3.36751 16.3881L9.05228 17.8048C9.43452 17.9001 9.76325 18.1434 9.96613 18.4811C10.169 18.8187 10.2295 19.2232 10.1341 19.6054C10.0388 19.9877 9.79557 20.3164 9.45789 20.5193C9.12021 20.7222 8.71576 20.7826 8.33352 20.6873L5.68122 20.0264C6.81508 21.7622 8.41781 23.141 10.3035 24.0028C12.1892 24.8647 14.2806 25.1743 16.3351 24.8957C18.3896 24.6171 20.323 23.7618 21.9111 22.4289C23.4993 21.0961 24.677 19.3403 25.3077 17.3652C25.4274 16.9899 25.6913 16.6775 26.0414 16.4967C26.2147 16.4072 26.404 16.3527 26.5984 16.3364C26.7928 16.32 26.9885 16.3421 27.1744 16.4014C27.3602 16.4607 27.5326 16.556 27.6816 16.6819C27.8306 16.8078 27.9534 16.9618 28.0429 17.1352C28.1324 17.3085 28.1868 17.4978 28.2032 17.6922C28.2195 17.8866 28.1974 18.0823 28.1382 18.2681C27.5199 20.2076 26.4842 21.9879 25.1039 23.484C23.7235 24.9801 22.0321 26.1555 20.1486 26.9275C17.2139 28.1297 13.9569 28.2953 10.9154 27.3967C7.87386 26.4982 5.22971 24.5893 3.41948 21.9852Z" fill="#D1D3D4"/>
</svg>
