<svg width="28" height="34" viewBox="0 0 28 34" fill="none" xmlns="http://www.w3.org/2000/svg">
<path d="M12 33.6262C13.8921 33.6262 15.427 32.0914 15.427 30.1977H8.57305C8.57305 32.0914 10.1079 33.6262 12 33.6262ZM23.5387 25.6061C22.5037 24.4939 20.5671 22.8209 20.5671 17.3406C20.5671 13.1781 17.6486 9.84596 13.7132 9.02846V7.91203C13.7132 6.96543 12.9461 6.19775 12 6.19775C11.0539 6.19775 10.2868 6.96543 10.2868 7.91203V9.02846C6.35145 9.84596 3.43288 13.1781 3.43288 17.3406C3.43288 22.8209 1.49628 24.4939 0.461286 25.6061C0.139858 25.9516 -0.00264152 26.3647 3.70385e-05 26.7691C0.00592988 27.6477 0.695392 28.4834 1.71967 28.4834H22.2803C23.3046 28.4834 23.9946 27.6477 24 26.7691C24.0026 26.3647 23.8601 25.9511 23.5387 25.6061Z" fill="#A7A9AC"/>
<circle cx="20" cy="8.81311" r="8" fill="#7391FA"/>
<path d="M16.91 12.8131H18.31V9.85311C18.31 8.99311 18.19 8.06311 18.12 7.27311H18.17L18.92 8.85311L21.06 12.8131H22.57V5.41311H21.16V8.36311C21.16 9.20311 21.28 10.1931 21.36 10.9631H21.31L20.56 9.36311L18.41 5.41311H16.91V12.8131Z" fill="white"/>
</svg>
