<svg width="20" height="20" viewBox="0 0 20 20" fill="none" xmlns="http://www.w3.org/2000/svg">
<path fill-rule="evenodd" clip-rule="evenodd" d="M10 20C15.5229 20 20 15.5229 20 10C20 4.47715 15.5229 0 10 0C4.47715 0 0 4.47715 0 10C0 15.5229 4.47715 20 10 20ZM11.25 6.25C11.25 5.55965 10.6904 5 10 5C9.30965 5 8.75 5.55965 8.75 6.25V8.75H6.25C5.55965 8.75 5 9.30964 5 10C5 10.6904 5.55965 11.25 6.25 11.25H8.75V13.75C8.75 14.4404 9.30965 15 10 15C10.6904 15 11.25 14.4404 11.25 13.75V11.25H13.75C14.4404 11.25 15 10.6904 15 10C15 9.30965 14.4404 8.75 13.75 8.75H11.25V6.25Z" fill="#7391FA"/>
</svg>
