<svg width="20" height="17" viewBox="0 0 20 17" fill="none" xmlns="http://www.w3.org/2000/svg">
<path d="M9.9999 13.1667C7.6296 13.1667 5.71085 11.332 5.53429 9.007L2.25618 6.47357C1.82524 7.01419 1.42868 7.58575 1.10868 8.21075C1.03719 8.35216 0.999946 8.50839 0.999946 8.66684C0.999946 8.82529 1.03719 8.98152 1.10868 9.12293C2.80336 12.4295 6.15835 14.6667 9.9999 14.6667C10.8408 14.6667 11.6521 14.5417 12.434 14.3398L10.8124 13.0851C10.5446 13.1368 10.2726 13.1641 9.9999 13.1667ZM19.8067 14.9823L16.3521 12.3123C17.4015 11.4279 18.2646 10.3436 18.8911 9.12262C18.9626 8.98121 18.9999 8.82498 18.9999 8.66653C18.9999 8.50808 18.9626 8.35184 18.8911 8.21043C17.1964 4.90388 13.8415 2.6667 9.9999 2.6667C8.391 2.66865 6.80823 3.07369 5.39617 3.84482L1.42055 0.77202C1.36871 0.731679 1.30943 0.701949 1.24609 0.684528C1.18275 0.667108 1.1166 0.662339 1.05142 0.670494C0.98624 0.678649 0.923305 0.699568 0.866212 0.732055C0.809118 0.764543 0.758986 0.807962 0.71868 0.859832L0.105245 1.64952C0.0238694 1.7542 -0.0125943 1.88692 0.00387315 2.01848C0.0203406 2.15005 0.0883907 2.26968 0.193057 2.35108L18.5793 16.5613C18.6311 16.6017 18.6904 16.6314 18.7537 16.6488C18.8171 16.6663 18.8832 16.671 18.9484 16.6629C19.0136 16.6547 19.0765 16.6338 19.1336 16.6013C19.1907 16.5688 19.2408 16.5254 19.2811 16.4735L19.8949 15.6838C19.9762 15.5791 20.0126 15.4464 19.9961 15.3148C19.9796 15.1833 19.9115 15.0636 19.8067 14.9823ZM14.0655 10.5448L12.8374 9.59543C12.9408 9.29651 12.9957 8.98296 12.9999 8.66668C13.006 8.20364 12.9034 7.74562 12.7004 7.32942C12.4974 6.91321 12.1996 6.55043 11.8309 6.2702C11.4622 5.98996 11.033 5.8001 10.5776 5.71586C10.1223 5.63162 9.65349 5.65534 9.20897 5.78513C9.39741 6.04047 9.49934 6.34934 9.4999 6.66669C9.49524 6.77229 9.4791 6.87708 9.45178 6.97919L7.15147 5.20138C7.95053 4.53364 8.95857 4.16747 9.9999 4.1667C10.5909 4.16637 11.1762 4.28254 11.7224 4.50857C12.2685 4.7346 12.7647 5.06605 13.1826 5.48398C13.6005 5.90191 13.932 6.39811 14.158 6.94422C14.384 7.49034 14.5002 8.07564 14.4999 8.66668C14.4999 9.34262 14.3346 9.97262 14.0655 10.5451V10.5448Z" fill="#D1D3D4"/>
</svg>
