<svg width="20" height="18" viewBox="0 0 20 18" fill="none" xmlns="http://www.w3.org/2000/svg">
<path d="M16.9505 11.8952C16.9762 11.8431 16.9911 11.7812 16.9911 11.7161C16.9911 11.651 16.9762 11.5891 16.9495 11.5348L16.438 10.7772C16.4284 10.7631 16.423 10.7468 16.423 10.7284C16.423 10.7099 16.4284 10.6936 16.438 10.6795L16.9505 9.91975C16.9762 9.86765 16.9911 9.80578 16.9911 9.74065C16.9911 9.67553 16.9762 9.61366 16.9495 9.55939C16.9067 9.44 16.8138 9.34665 16.6975 9.30215L15.8187 8.97544C15.7856 8.9635 15.761 8.93528 15.7546 8.90055V7.98773C15.7471 7.85205 15.6777 7.73483 15.5742 7.66319C15.5037 7.61435 15.4193 7.58613 15.3275 7.58613C15.3232 7.58613 15.32 7.58613 15.3158 7.58613H15.146L14.2384 7.82492C14.2277 7.82926 14.2149 7.83251 14.201 7.83251C14.1871 7.83251 14.1743 7.82926 14.1626 7.82492L13.5764 7.1194C13.492 7.02714 13.3724 6.9707 13.24 6.9707C13.1076 6.9707 12.988 7.02823 12.9037 7.1194L12.3164 7.82492C12.3057 7.82926 12.2929 7.83251 12.279 7.83251C12.2651 7.83251 12.2523 7.82926 12.2406 7.82492H12.2417L11.2807 7.57527H11.1739C11.1717 7.57527 11.1685 7.57527 11.1653 7.57527C11.0724 7.57527 10.987 7.60349 10.9155 7.65234C10.813 7.72397 10.7436 7.8412 10.7361 7.97579V8.88861C10.7297 8.92443 10.7051 8.95265 10.6731 8.96459L9.79645 9.29021C9.65337 9.31518 9.53485 9.40961 9.47719 9.53768C9.4505 9.59304 9.43555 9.65382 9.43555 9.71895C9.43555 9.78407 9.4505 9.84594 9.47719 9.90021L9.98865 10.6578C9.99826 10.6719 10.0036 10.6882 10.0036 10.7067C10.0036 10.7251 9.99826 10.7414 9.98865 10.7555L9.47612 11.5153C9.4505 11.5674 9.43555 11.6293 9.43555 11.6944C9.43555 11.7595 9.4505 11.8214 9.47719 11.8756C9.5199 11.995 9.6128 12.0884 9.72918 12.1329L10.608 12.4596C10.6411 12.4715 10.6656 12.4998 10.672 12.5345V13.4473C10.6795 13.583 10.7489 13.7002 10.8525 13.7718C10.924 13.8207 11.0094 13.8489 11.1023 13.8489H11.1109H11.2817L11.6127 13.7729V17.7781L13.2464 15.6073L14.816 17.7781V13.7729L15.1471 13.8598H15.2645H15.2731C15.366 13.8598 15.4514 13.8315 15.5229 13.7827C15.6254 13.7111 15.6948 13.5938 15.7023 13.4592V12.5464C15.7087 12.5106 15.7333 12.4824 15.7653 12.4704L16.6419 12.1448C16.7807 12.1166 16.8939 12.0233 16.9505 11.8984V11.8952Z" fill="white"/>
<path d="M9.56838 6.5293C9.56838 6.87236 9.56292 7.15914 9.56292 7.5893V7.74972H4.10254V6.5293H9.56838Z" fill="white"/>
<path d="M8.02721 8.89648H4.01367V10.1169H8.02721C8.02721 9.89358 8.02721 9.81672 8.02721 9.60681C8.02721 9.44815 8.02721 9.32003 8.02721 9.17664C8.02721 9.1352 8.02721 9.03326 8.02721 8.89648Z" fill="white"/>
<path d="M4.01367 4.01465H16.3099V5.23507H4.01367V4.01465Z" fill="white"/>
<path d="M2.91358 1.76447C2.59543 1.76447 2.3004 1.88298 2.09098 2.07852C1.8834 2.27235 1.77778 2.52331 1.77778 2.77274V12.2252C1.77778 12.4747 1.8834 12.7256 2.09098 12.9195C2.3004 13.115 2.59543 13.2335 2.91358 13.2335H9.46048V14.052V14.998H2.91358C2.15777 14.998 1.42282 14.7181 0.872835 14.2046C0.321012 13.6894 0 12.9786 0 12.2252V2.77274C0 2.01938 0.321012 1.30862 0.872835 0.793375C1.42282 0.279843 2.15777 0 2.91358 0H17.0864C17.8422 0 18.5772 0.279843 19.1272 0.793375C19.679 1.30862 20 2.01937 20 2.77274V12.2252C20 12.9786 19.679 13.6894 19.1272 14.2046C18.5772 14.7181 17.8422 14.998 17.0864 14.998H16.6275V14.052V13.2335H17.0864C17.4046 13.2335 17.6996 13.115 17.909 12.9195C18.1166 12.7256 18.2222 12.4747 18.2222 12.2252V2.77274C18.2222 2.52331 18.1166 2.27235 17.909 2.07852C17.6996 1.88298 17.4046 1.76447 17.0864 1.76447H2.91358Z" fill="white"/>
</svg>
