<svg width="28" height="28" viewBox="0 0 28 28" fill="none" xmlns="http://www.w3.org/2000/svg">
<circle cx="14" cy="14" r="14" fill="#D1D3D4"/>
<path d="M12.481 4.67969C11.8804 4.67969 11.3312 5.01827 11.0615 5.55475L10.4371 6.79673H8.64778C7.18545 6.79673 6 7.98187 6 9.44384V17.9152C6 19.3771 7.18545 20.5623 8.64778 20.5623H14.044C13.8725 20.2269 13.7325 19.8726 13.6281 19.5035H8.64778C7.77038 19.5035 7.05911 18.7923 7.05911 17.9152V9.44384C7.05911 8.56666 7.77038 7.85557 8.64778 7.85557H10.7637C10.9639 7.85557 11.1469 7.74271 11.2368 7.56389L12.0078 6.03022C12.0977 5.85139 12.2808 5.73853 12.481 5.73853H16.4677C16.6683 5.73853 16.8516 5.85185 16.9413 6.03122L17.7072 7.56287C17.7969 7.74226 17.9802 7.85557 18.1808 7.85557H20.298C21.1755 7.85557 21.8867 8.56666 21.8867 9.44384V12.7291C22.2657 12.9233 22.6206 13.1577 22.9458 13.4268V9.44384C22.9458 7.98188 21.7604 6.79673 20.298 6.79673H18.5082L17.8887 5.55778C17.6196 5.01964 17.0695 4.67969 16.4677 4.67969H12.481Z" fill="white"/>
<path d="M14.4679 8.91504C16.455 8.91504 18.1224 10.2827 18.5801 12.1278C18.223 12.1677 17.8758 12.2398 17.5412 12.3412C17.1833 10.9788 15.943 9.97388 14.4679 9.97388C12.7131 9.97388 11.2906 11.3961 11.2906 13.1504C11.2906 14.6251 12.2958 15.8651 13.6585 16.2229C13.5571 16.5574 13.4849 16.9046 13.4451 17.2615C11.5995 16.8041 10.2314 15.137 10.2314 13.1504C10.2314 10.8113 12.1282 8.91504 14.4679 8.91504V8.91504Z" fill="white"/>
<path d="M23.9998 17.9142C23.9998 20.5457 21.866 22.679 19.2337 22.679C16.6016 22.679 14.4678 20.5457 14.4678 17.9142C14.4678 15.2827 16.6016 13.1494 19.2337 13.1494C21.866 13.1494 23.9998 15.2827 23.9998 17.9142ZM19.7633 15.7965C19.7633 15.5042 19.5263 15.2671 19.2337 15.2671C18.9413 15.2671 18.7042 15.5042 18.7042 15.7965V17.3848H17.1155C16.8231 17.3848 16.586 17.6219 16.586 17.9142C16.586 18.2065 16.8231 18.4436 17.1155 18.4436H18.7042V20.0319C18.7042 20.3242 18.9413 20.5613 19.2337 20.5613C19.5263 20.5613 19.7633 20.3242 19.7633 20.0319V18.4436H21.352C21.6445 18.4436 21.8815 18.2065 21.8815 17.9142C21.8815 17.6219 21.6445 17.3848 21.352 17.3848H19.7633V15.7965Z" fill="white"/>
</svg>
