<svg width="4" height="16" viewBox="0 0 4 16" fill="none" xmlns="http://www.w3.org/2000/svg">
<path d="M4 2.07407C4 3.21955 3.10457 4.14815 2 4.14815C0.895431 4.14815 0 3.21955 0 2.07407C0 0.928595 0.895431 0 2 0C3.10457 0 4 0.928595 4 2.07407Z" fill="#D1D3D4"/>
<path d="M4 7.99998C4 9.14546 3.10457 10.0741 2 10.0741C0.895431 10.0741 0 9.14546 0 7.99998C0 6.8545 0.895431 5.9259 2 5.9259C3.10457 5.9259 4 6.8545 4 7.99998Z" fill="#D1D3D4"/>
<path d="M4 13.9259C4 15.0714 3.10457 16 2 16C0.895431 16 0 15.0714 0 13.9259C0 12.7805 0.895431 11.8519 2 11.8519C3.10457 11.8519 4 12.7805 4 13.9259Z" fill="#D1D3D4"/>
</svg>
