<svg width="24" height="23" viewBox="0 0 24 23" fill="none" xmlns="http://www.w3.org/2000/svg">
<path d="M7.87334 0.949359C7.87334 0.425047 7.4483 0 6.92398 0C6.39967 0 5.97462 0.425047 5.97462 0.949359V4.11389C5.97462 4.6382 5.54958 5.06325 5.02527 5.06325H1.86074C1.33642 5.06325 0.911377 5.48829 0.911377 6.01261C0.911377 6.53692 1.33642 6.96197 1.86074 6.96197H5.02527C6.59821 6.96197 7.87334 5.68684 7.87334 4.11389V0.949359Z" fill="#D1D3D4"/>
<path d="M7.87334 21.8352C7.87334 22.3595 7.4483 22.7845 6.92398 22.7845C6.39967 22.7845 5.97462 22.3595 5.97462 21.8352V18.6706C5.97462 18.1463 5.54958 17.7213 5.02527 17.7213H1.86074C1.33642 17.7213 0.911377 17.2962 0.911377 16.7719C0.911377 16.2476 1.33642 15.8226 1.86074 15.8226H5.02527C6.59821 15.8226 7.87334 17.0977 7.87334 18.6706V21.8352Z" fill="#D1D3D4"/>
<path d="M17.6837 0C17.1594 0 16.7343 0.425047 16.7343 0.949359V4.11389C16.7343 5.68684 18.0095 6.96197 19.5824 6.96197H22.7469C23.2712 6.96197 23.6963 6.53692 23.6963 6.01261C23.6963 5.48829 23.2712 5.06325 22.7469 5.06325H19.5824C19.0581 5.06325 18.633 4.6382 18.633 4.11389V0.949359C18.633 0.425047 18.208 0 17.6837 0Z" fill="#D1D3D4"/>
<path d="M16.7343 21.8352C16.7343 22.3595 17.1594 22.7845 17.6837 22.7845C18.208 22.7845 18.633 22.3595 18.633 21.8352V18.6706C18.633 18.1463 19.0581 17.7213 19.5824 17.7213H22.7469C23.2712 17.7213 23.6963 17.2962 23.6963 16.7719C23.6963 16.2476 23.2712 15.8226 22.7469 15.8226H19.5824C18.0095 15.8226 16.7343 17.0977 16.7343 18.6706V21.8352Z" fill="#D1D3D4"/>
</svg>
