<svg width="22" height="22" viewBox="0 0 22 22" fill="none" xmlns="http://www.w3.org/2000/svg">
<path d="M3.14286 3.14286C3.14286 1.4071 4.54996 0 6.28572 0C8.02147 0 9.42857 1.4071 9.42857 3.14286C9.42857 4.15605 8.94913 5.05727 8.20475 5.632C8.18235 5.64852 8.1601 5.66524 8.13801 5.68213C7.61859 6.06168 6.97831 6.28571 6.28572 6.28571C4.54996 6.28571 3.14286 4.87861 3.14286 3.14286Z" fill="#D1D3D4"/>
<path d="M13.7953 5.632C13.8176 5.64852 13.8399 5.66524 13.862 5.68214C14.3814 6.06169 15.0218 6.28571 15.7143 6.28571C17.4501 6.28571 18.8571 4.87861 18.8571 3.14286C18.8571 1.4071 17.4501 0 15.7143 0C13.9785 0 12.5714 1.4071 12.5714 3.14286C12.5714 4.15605 13.0509 5.05727 13.7953 5.632Z" fill="#D1D3D4"/>
<path d="M8.27759 7.85713C8.82101 6.91773 9.8367 6.28571 11 6.28571C12.1633 6.28571 13.179 6.91773 13.7224 7.85713C13.9898 8.3194 14.1429 8.85611 14.1429 9.42856C14.1429 11.1643 12.7358 12.5714 11 12.5714C9.26425 12.5714 7.85714 11.1643 7.85714 9.42856C7.85714 8.85611 8.01018 8.3194 8.27759 7.85713Z" fill="#D1D3D4"/>
<path d="M2.35711 7.85712H6.55397C6.38024 8.34863 6.28571 8.87754 6.28571 9.42855C6.28571 10.636 6.73962 11.7374 7.48611 12.5714H7.0714C5.36618 12.5714 3.91474 13.6579 3.37145 15.1762C2.83723 14.9589 2.34297 14.6749 1.90481 14.3232C0.721239 13.3733 0 11.9681 0 10.2143C0 8.9125 1.05531 7.85712 2.35711 7.85712Z" fill="#D1D3D4"/>
<path d="M14.9284 12.5714C16.6336 12.5714 18.0851 13.6578 18.6283 15.1762C19.1626 14.9589 19.6568 14.6749 20.0951 14.3232C21.2786 13.3733 21.9998 11.9681 21.9998 10.2143C21.9998 8.91244 20.9445 7.85712 19.6427 7.85712H15.4459C15.6195 8.34863 15.7141 8.87754 15.7141 9.42855C15.7141 10.636 15.2601 11.7374 14.5137 12.5714H14.9284Z" fill="#D1D3D4"/>
<path d="M17.1083 15.6012C17.2225 15.8782 17.2857 16.1818 17.2857 16.5C17.2857 18.2539 16.5644 19.6591 15.381 20.609C14.2161 21.544 12.6548 22 11 22C9.34516 22 7.78395 21.544 6.61909 20.609C5.43553 19.6591 4.71429 18.2539 4.71429 16.5C4.71429 16.1818 4.77738 15.8782 4.89173 15.6012C5.24508 14.7452 6.08789 14.1429 7.0714 14.1429H14.9286C15.9121 14.1429 16.7549 14.7452 17.1083 15.6012Z" fill="#D1D3D4"/>
</svg>
