<svg width="26" height="22" viewBox="0 0 26 22" fill="none" xmlns="http://www.w3.org/2000/svg">
<path d="M5.47893 7.67105C6.20548 7.67105 6.90227 7.38241 7.41602 6.86862C7.92977 6.35484 8.21839 5.658 8.21839 4.93139C8.21839 4.20479 7.92977 3.50794 7.41602 2.99416C6.90227 2.48037 6.20548 2.19173 5.47893 2.19173C4.75238 2.19173 4.05558 2.48037 3.54183 2.99416C3.02809 3.50794 2.73946 4.20479 2.73946 4.93139C2.73946 5.658 3.02809 6.35484 3.54183 6.86862C4.05558 7.38241 4.75238 7.67105 5.47893 7.67105ZM5.47893 9.86278C4.83138 9.86278 4.19016 9.73523 3.5919 9.4874C2.99364 9.23958 2.45005 8.87633 1.99216 8.41841C1.53427 7.96049 1.17105 7.41686 0.923245 6.81855C0.675438 6.22025 0.547893 5.57899 0.547893 4.93139C0.547893 4.28379 0.675438 3.64253 0.923245 3.04423C1.17105 2.44593 1.53427 1.90229 1.99216 1.44437C2.45005 0.986449 2.99364 0.623205 3.5919 0.37538C4.19016 0.127554 4.83138 -9.64999e-09 5.47893 0C6.78672 1.9489e-08 8.04095 0.519556 8.9657 1.44437C9.89044 2.36919 10.41 3.62351 10.41 4.93139C10.41 6.23928 9.89044 7.4936 8.9657 8.41841C8.04095 9.34323 6.78672 9.86278 5.47893 9.86278ZM8.76628 20.8214V16.438C8.76628 15.566 8.41994 14.7298 7.80344 14.1133C7.18694 13.4967 6.35079 13.1504 5.47893 13.1504C4.60707 13.1504 3.77091 13.4967 3.15442 14.1133C2.53792 14.7298 2.19157 15.566 2.19157 16.438V20.8214H0V16.438C0 14.9848 0.577242 13.5911 1.60474 12.5635C2.63224 11.5359 4.02583 10.9586 5.47893 10.9586C6.93203 10.9586 8.32562 11.5359 9.35312 12.5635C10.3806 13.5911 10.9579 14.9848 10.9579 16.438V20.8214H8.76628Z" fill="#D1D3D4"/>
<ellipse cx="1.09579" cy="20.9056" rx="1.09579" ry="1.09439" fill="#D1D3D4"/>
<ellipse cx="9.86214" cy="20.9056" rx="1.09579" ry="1.09439" fill="#D1D3D4"/>
<path d="M19.8417 7.67105C20.5683 7.67105 21.2651 7.38241 21.7788 6.86862C22.2926 6.35484 22.5812 5.658 22.5812 4.93139C22.5812 4.20479 22.2926 3.50794 21.7788 2.99416C21.2651 2.48037 20.5683 2.19173 19.8417 2.19173C19.1152 2.19173 18.4184 2.48037 17.9046 2.99416C17.3909 3.50794 17.1023 4.20479 17.1023 4.93139C17.1023 5.658 17.3909 6.35484 17.9046 6.86862C18.4184 7.38241 19.1152 7.67105 19.8417 7.67105ZM19.8417 9.86278C19.1942 9.86278 18.553 9.73523 17.9547 9.4874C17.3564 9.23958 16.8128 8.87633 16.355 8.41841C15.8971 7.96049 15.5338 7.41686 15.286 6.81855C15.0382 6.22025 14.9107 5.57899 14.9107 4.93139C14.9107 4.28379 15.0382 3.64253 15.286 3.04423C15.5338 2.44593 15.8971 1.90229 16.355 1.44437C16.8128 0.986449 17.3564 0.623205 17.9547 0.37538C18.553 0.127554 19.1942 -9.64999e-09 19.8417 0C21.1495 1.9489e-08 22.4037 0.519556 23.3285 1.44437C24.2532 2.36919 24.7728 3.62351 24.7728 4.93139C24.7728 6.23928 24.2532 7.4936 23.3285 8.41841C22.4037 9.34323 21.1495 9.86278 19.8417 9.86278ZM23.1291 20.8214V16.438C23.1291 15.566 22.7827 14.7298 22.1662 14.1133C21.5497 13.4967 20.7136 13.1504 19.8417 13.1504C18.9699 13.1504 18.1337 13.4967 17.5172 14.1133C16.9007 14.7298 16.5544 15.566 16.5544 16.438V20.8214H14.3628V16.438C14.3628 14.9848 14.94 13.5911 15.9675 12.5635C16.995 11.5359 18.3886 10.9586 19.8417 10.9586C21.2948 10.9586 22.6884 11.5359 23.7159 12.5635C24.7434 13.5911 25.3206 14.9848 25.3206 16.438V20.8214H23.1291Z" fill="#D1D3D4"/>
<ellipse cx="15.4586" cy="20.9056" rx="1.09579" ry="1.09439" fill="#D1D3D4"/>
<ellipse cx="24.2247" cy="20.9056" rx="1.09579" ry="1.09439" fill="#D1D3D4"/>
</svg>
